<svg xmlns="http://www.w3.org/2000/svg" width="15.72" height="24" viewBox="0 0 15.72 24">
  <g id="Group_7034" data-name="Group 7034" transform="translate(-4589.993 939.011)">
    <path id="Path_2712" data-name="Path 2712" d="M4596.984-876.931a11.191,11.191,0,0,1,.805-5.618v-3.326a7.8,7.8,0,0,1,.606,2.516,2.158,2.158,0,0,1,1.291-.613.868.868,0,0,1,.1-.006h.019c.024,0,.048,0,.073,0s.051,0,.077,0q-.024-.18-.052-.353a2.371,2.371,0,0,1-.794-1.772,2.358,2.358,0,0,1,.076-.6,3.632,3.632,0,0,0-.72-.98,2.134,2.134,0,0,0-1.408-.632l-.048,0H4593.1l-.05,0a2.136,2.136,0,0,0-1.407.632c-1.3,1.226-1.839,4.015-1.589,8.29a.81.81,0,0,0,.808.762h.048a.81.81,0,0,0,.761-.855c-.208-3.556.195-5.451.647-6.392v15.181a1.251,1.251,0,0,0,1.251,1.251,1.251,1.251,0,0,0,1.251-1.251v-9.134h.469v9.134a1.251,1.251,0,0,0,1.251,1.251,1.251,1.251,0,0,0,1.251-1.251v-5.337A.959.959,0,0,1,4596.984-876.931Z" transform="translate(0 -45.568)" fill="#003398"/>
    <circle id="Ellipse_14" data-name="Ellipse 14" cx="2.277" cy="2.277" r="2.277" transform="translate(4592.776 -939.011)" fill="#003398"/>
    <path id="Path_2713" data-name="Path 2713" d="M4664.418-842.1l.028,0,.045,0h3.071l.045,0,.027,0h.021l.042,0h.029l.024,0h.008a1.472,1.472,0,0,1,.937.486c.865.909,1.264,2.974,1.124,5.814a.252.252,0,0,1-.252.24h-.013a.251.251,0,0,1-.175-.083.25.25,0,0,1-.065-.182,10.062,10.062,0,0,0-.619-4.9.406.406,0,0,0-.362-.223.4.4,0,0,0-.094.011.4.4,0,0,0-.311.394v11.173a.646.646,0,0,1-.645.645.646.646,0,0,1-.646-.645v-5a.4.4,0,0,0-.4-.4h-.416a.4.4,0,0,0-.4.4v5a.645.645,0,0,1-.645.645.646.646,0,0,1-.646-.645v-11.173a.4.4,0,0,0-.312-.394.4.4,0,0,0-.093-.011.406.406,0,0,0-.362.223,10.061,10.061,0,0,0-.619,4.9.254.254,0,0,1-.243.265h-.01a.252.252,0,0,1-.252-.24c-.141-2.841.258-4.905,1.124-5.814a1.47,1.47,0,0,1,.937-.486h.008l.024,0h.029l.042,0h.021m3.217-.4a.656.656,0,0,0-.073,0h-3.071a.656.656,0,0,0-.073,0c-.027,0-.054,0-.081,0h-.011a.616.616,0,0,0-.07,0,1.882,1.882,0,0,0-1.193.61c-.956,1-1.382,3.118-1.235,6.113a.658.658,0,0,0,.657.625h.033a.658.658,0,0,0,.625-.689,9.684,9.684,0,0,1,.577-4.694v11.173a1.05,1.05,0,0,0,1.05,1.05,1.05,1.05,0,0,0,1.049-1.05v-5h.416v5a1.05,1.05,0,0,0,1.05,1.05,1.05,1.05,0,0,0,1.05-1.05v-11.173a9.684,9.684,0,0,1,.577,4.694.658.658,0,0,0,.625.689h.033a.657.657,0,0,0,.656-.625c.148-3-.279-5.109-1.234-6.113a1.884,1.884,0,0,0-1.193-.61.616.616,0,0,0-.07,0h-.011c-.027,0-.054,0-.081,0Z" transform="translate(-64.542 -86.738)" fill="#003398"/>
    <path id="Path_2714" data-name="Path 2714" d="M4685.148-886.561a1.672,1.672,0,0,1,1.669,1.67,1.671,1.671,0,0,1-1.669,1.67,1.672,1.672,0,0,1-1.67-1.67,1.672,1.672,0,0,1,1.67-1.67m0-.4a2.075,2.075,0,0,0-2.075,2.074,2.074,2.074,0,0,0,2.075,2.074,2.074,2.074,0,0,0,2.074-2.074,2.074,2.074,0,0,0-2.074-2.074Z" transform="translate(-83.662 -46.778)" fill="#003398"/>
  </g>
</svg>
