<svg xmlns="http://www.w3.org/2000/svg" width="24" height="13.051" viewBox="0 0 24 13.051">
  <g id="Group_7185" data-name="Group 7185" transform="translate(-954.9 -167)">
    <path id="Path_34" data-name="Path 34" d="M-945.852,974.593a.3.3,0,0,0-.293-.293h-1.662a.3.3,0,0,0-.293.293v12.464a.3.3,0,0,0,.293.293h1.662a.3.3,0,0,0,.293-.293v-2.444h19.5v2.444a.3.3,0,0,0,.293.293h1.662a.3.3,0,0,0,.293-.293V982.39h-21.727l-.024-7.8Z" transform="translate(1903 -807.3)" fill="#003398"/>
    <circle id="Ellipse_2" data-name="Ellipse 2" cx="2.566" cy="2.566" r="2.566" transform="translate(958.102 169.029)" fill="#003398"/>
    <path id="Path_35" data-name="Path 35" d="M-897.858,983.872l-10.558-2.273a1.476,1.476,0,0,0-1.784,1.442v3.91h14.713V986.8A2.984,2.984,0,0,0-897.858,983.872Z" transform="translate(1874.363 -812.791)" fill="#003398"/>
  </g>
</svg>
