<svg xmlns="http://www.w3.org/2000/svg" width="30" height="16.314" viewBox="0 0 30 16.314">
  <g id="Group_7190" data-name="Group 7190" transform="translate(-669.9 -511)">
    <path id="Path_34" data-name="Path 34" d="M-945.29,974.667a.371.371,0,0,0-.367-.367h-2.077a.372.372,0,0,0-.367.367v15.58a.372.372,0,0,0,.367.367h2.077a.371.371,0,0,0,.367-.367v-3.055h24.379v3.055a.372.372,0,0,0,.367.367h2.077a.371.371,0,0,0,.367-.367v-5.835h-27.159l-.031-9.745Z" transform="translate(1618 -463.3)" fill="#fff"/>
    <circle id="Ellipse_2" data-name="Ellipse 2" cx="3.208" cy="3.208" r="3.208" transform="translate(673.902 513.536)" fill="#fff"/>
    <path id="Path_35" data-name="Path 35" d="M-894.772,984.449l-13.2-2.841a1.845,1.845,0,0,0-2.23,1.8V988.3h18.391v-.183A3.73,3.73,0,0,0-894.772,984.449Z" transform="translate(1591.679 -468.346)" fill="#fff"/>
  </g>
</svg>
