<svg xmlns="http://www.w3.org/2000/svg" width="23.573" height="23.998" viewBox="0 0 23.573 23.998">
  <g id="Group_6952" data-name="Group 6952" transform="translate(-5.797 -5)">
    <path id="Path_2694" data-name="Path 2694" d="M22.636,25.675a1.141,1.141,0,0,0-.708-.32,2.3,2.3,0,0,1-1.447-.641,2.189,2.189,0,0,1-.641-1.447,1.083,1.083,0,0,0-.321-.708,1.106,1.106,0,0,0-1.563,0l-.685.685-7.106-6.93a1.291,1.291,0,0,1-.4-.548,1.6,1.6,0,0,0-.442-1.007c-.606-.528-1.619-1.347-2.25-1.793A.428.428,0,0,0,6.44,13l-.483.483a.427.427,0,0,0-.038.636c.446.632,1.265,1.644,1.793,2.251a1.605,1.605,0,0,0,1.007.443,1.287,1.287,0,0,1,.548.4l6.93,7.106L15.513,25a1.106,1.106,0,0,0,0,1.564,1.083,1.083,0,0,0,.708.32,2.193,2.193,0,0,1,1.448.64,2.3,2.3,0,0,1,.641,1.448,1.133,1.133,0,0,0,.32.707l4.419,4.42a2.211,2.211,0,0,0,3.127,0l.881-.881a2.212,2.212,0,0,0,0-3.128Z" transform="translate(0 -5.751)" fill="#818284"/>
    <path id="Path_2695" data-name="Path 2695" d="M57.577,9.714l-4.141,2.275-1.884-1.142.047-2.2,4.288-2.355a5.084,5.084,0,0,0-8.384,4.7,1.186,1.186,0,0,1-.336,1.074l-2.89,2.89,1.206,1.177.007-.008a2.077,2.077,0,0,1,2.936,0,2.087,2.087,0,0,1,.443.658l1.4-1.4a1.225,1.225,0,0,1,1.167-.321A4.928,4.928,0,0,0,56.1,13.681,5.074,5.074,0,0,0,57.577,9.714Z" transform="translate(-28.22)" fill="#818284"/>
    <path id="Path_2696" data-name="Path 2696" d="M15.578,52.538l.007-.007-1.176-1.206L7.486,58.248A2.269,2.269,0,0,0,10.7,61.457l5.54-5.54a2.076,2.076,0,0,1-.658-3.379Z" transform="translate(-0.751 -33.972)" fill="#818284"/>
  </g>
</svg>
