<svg xmlns="http://www.w3.org/2000/svg" width="35.75" height="24" viewBox="0 0 35.75 24">
  <g id="Group_1" data-name="Group 1" transform="translate(-5.362 -20.033)">
    <path id="Path_1" data-name="Path 1" d="M38.239,69.3a.784.784,0,1,0,.784.784A.785.785,0,0,0,38.239,69.3Z" transform="translate(-19.242 -29.537)" fill="none"/>
    <path id="Path_2" data-name="Path 2" d="M76.083,69.3a.784.784,0,1,0,.785.784A.786.786,0,0,0,76.083,69.3Z" transform="translate(-41.931 -29.537)" fill="none"/>
    <path id="Path_3" data-name="Path 3" d="M40.376,25.322a1.351,1.351,0,0,0-1.819.587l-3.695,7.208H17.9L11.8,20.785a1.354,1.354,0,0,0-1.212-.752H6.714a1.352,1.352,0,1,0,0,2.7H9.746l6.1,12.332a1.353,1.353,0,0,0,1.213.752H35.687a1.35,1.35,0,0,0,1.2-.735l4.073-7.945A1.352,1.352,0,0,0,40.376,25.322Z" fill="#7b7c7e"/>
    <path id="Path_4" data-name="Path 4" d="M34.191,62.545a3.488,3.488,0,1,0,3.487,3.487A3.491,3.491,0,0,0,34.191,62.545Zm0,4.273a.784.784,0,1,1,.784-.785A.785.785,0,0,1,34.191,66.818Z" transform="translate(-15.194 -25.488)" fill="#7b7c7e"/>
    <path id="Path_5" data-name="Path 5" d="M72.034,62.545a3.488,3.488,0,1,0,3.489,3.487A3.492,3.492,0,0,0,72.034,62.545Zm0,4.273a.784.784,0,1,1,.785-.785A.786.786,0,0,1,72.034,66.818Z" transform="translate(-37.883 -25.488)" fill="#7b7c7e"/>
  </g>
</svg>
