<svg id="Group_6895" data-name="Group 6895" xmlns="http://www.w3.org/2000/svg" width="24" height="24" viewBox="0 0 24 24">
  <path id="Path_2679" data-name="Path 2679" d="M447.331,109.589l.421-1.573-2.477-2.477-1.573.421a12,12,0,0,0-12.949,0l-1.573-.421-2.477,2.477.422,1.573a12,12,0,1,0,20.205,0Zm-1.017,12.782a11.06,11.06,0,1,1-18.171-12.615l-.391-1.46,1.71-1.71,1.46.391a11.06,11.06,0,0,1,12.614,0l1.46-.391,1.71,1.71-.391,1.46A11.061,11.061,0,0,1,446.313,122.371Z" transform="translate(-425.227 -104.064)" fill="#818284"/>
  <path id="Path_2680" data-name="Path 2680" d="M487.616,207.5a2.914,2.914,0,1,0,3.246,2.9A2.922,2.922,0,0,0,487.616,207.5Zm-1.582,3.428a.534.534,0,1,1,.49-.533A.512.512,0,0,1,486.034,210.929Zm1.914,1.871a.534.534,0,1,1,.49-.533A.512.512,0,0,1,487.948,212.8Zm0-3.743a.534.534,0,1,1,.49-.533A.513.513,0,0,1,487.948,209.057Zm2.4,1.339a.492.492,0,1,1-.49-.532A.512.512,0,0,1,490.352,210.4Z" transform="translate(-475.947 -191.77)" fill="#818284"/>
  <path id="Path_2681" data-name="Path 2681" d="M487.948,126.31a2.914,2.914,0,1,0-2.9-3.246A2.914,2.914,0,0,0,487.948,126.31Zm1.914-3.446a.534.534,0,1,1-.49.532A.512.512,0,0,1,489.862,122.864Zm-1.914-1.871a.534.534,0,1,1-.49.533A.512.512,0,0,1,487.948,120.992Zm0,3.743a.534.534,0,1,1-.49.533A.512.512,0,0,1,487.948,124.735Zm-2.4-1.339a.492.492,0,1,1,.49.533A.512.512,0,0,1,485.544,123.4Z" transform="translate(-475.947 -117.988)" fill="#818284"/>
  <path id="Path_2682" data-name="Path 2682" d="M516.389,156.721a4,4,0,1,0,3.88,4A3.941,3.941,0,0,0,516.389,156.721Zm0,5.624a1.636,1.636,0,1,1,1.45-1.625A1.545,1.545,0,0,1,516.389,162.345Z" transform="translate(-499.248 -148.721)" fill="#818284"/>
  <path id="Path_2683" data-name="Path 2683" d="M452.6,160.72a3.882,3.882,0,1,0-3.88,4A3.941,3.941,0,0,0,452.6,160.72Zm-3.88,1.625a1.636,1.636,0,1,1,1.45-1.625A1.545,1.545,0,0,1,448.723,162.345Z" transform="translate(-441.863 -148.721)" fill="#818284"/>
</svg>
