<svg xmlns="http://www.w3.org/2000/svg" width="23.899" height="24" viewBox="0 0 23.899 24">
  <g id="Group_6951" data-name="Group 6951" transform="translate(-1113.701 -722)">
    <g id="Group_6950" data-name="Group 6950" transform="translate(1101.001 719.5)">
      <g id="Group_6949" data-name="Group 6949" transform="translate(12.7 2.5)">
        <path id="Path_2689" data-name="Path 2689" d="M64.781,22.176A1.592,1.592,0,0,0,65.538,22a1.614,1.614,0,0,0,.834-.985,1.637,1.637,0,0,0-.1-1.288l-1.112-2.173a.45.45,0,0,0-.808,0s-.909,1.743-1.112,2.173a1.611,1.611,0,0,0,0,1.516A1.778,1.778,0,0,0,64.781,22.176Z" transform="translate(-47.804 -13.561)" fill="#818284"/>
        <path id="Path_2690" data-name="Path 2690" d="M44.881,22.176A1.592,1.592,0,0,0,45.638,22a1.614,1.614,0,0,0,.834-.985,1.637,1.637,0,0,0-.1-1.288l-1.112-2.173a.45.45,0,0,0-.808,0s-.909,1.743-1.112,2.173a1.611,1.611,0,0,0,0,1.516A1.778,1.778,0,0,0,44.881,22.176Z" transform="translate(-32.931 -13.561)" fill="#818284"/>
        <path id="Path_2691" data-name="Path 2691" d="M24.981,22.176A1.592,1.592,0,0,0,25.738,22a1.614,1.614,0,0,0,.834-.985,1.637,1.637,0,0,0-.1-1.288l-1.112-2.173a.45.45,0,0,0-.808,0s-.909,1.743-1.112,2.173a1.611,1.611,0,0,0,0,1.516A1.778,1.778,0,0,0,24.981,22.176Z" transform="translate(-18.058 -13.561)" fill="#818284"/>
        <path id="Path_2692" data-name="Path 2692" d="M34.309,48.621H33.147l-1.213-3.385a1.218,1.218,0,0,0-1.086-.859c-1.339-.126-2.678-.177-4.017-.177s-2.678.051-4.017.177a1.254,1.254,0,0,0-1.086.859l-1.213,3.385H19.379A.389.389,0,0,0,19,49v.884a.389.389,0,0,0,.379.379h.556a2.882,2.882,0,0,0-.177,1.036v3.259a.655.655,0,0,0,.429.606v1.794a.625.625,0,0,0,.632.632h1.314a.625.625,0,0,0,.632-.632V55.164H31v1.794a.625.625,0,0,0,.632.632h1.263a.625.625,0,0,0,.632-.632V55.164a.653.653,0,0,0,.354-.278.673.673,0,0,0,.076-.3V51.324a2.882,2.882,0,0,0-.177-1.036h.556a.389.389,0,0,0,.379-.379v-.884A.434.434,0,0,0,34.309,48.621Zm-11.166-2.7c1.213-.1,2.451-.152,3.688-.152,1.213,0,2.451.051,3.688.152L31.707,49.2H21.981Zm1.086,6.695a.615.615,0,0,1-.606.606H22.158a.615.615,0,0,1-.606-.606v-.4a.615.615,0,0,1,.606-.606h1.465a.615.615,0,0,1,.606.606Zm7.882,0a.615.615,0,0,1-.606.606H30.04a.615.615,0,0,1-.606-.606v-.4a.615.615,0,0,1,.606-.606h1.465a.615.615,0,0,1,.606.606Z" transform="translate(-14.882 -33.665)" fill="#818284"/>
        <path id="Path_2693" data-name="Path 2693" d="M25.588,2.5H3.711A1.013,1.013,0,0,0,2.7,3.511V25.489a1.011,1.011,0,1,0,2.021,0V4.521H24.578V25.489a1.011,1.011,0,0,0,2.021,0V3.511A1.013,1.013,0,0,0,25.588,2.5Z" transform="translate(-2.7 -2.5)" fill="#818284"/>
      </g>
    </g>
  </g>
</svg>
