<svg id="osuEKc" xmlns="http://www.w3.org/2000/svg" width="27.443" height="24" viewBox="0 0 27.443 24">
  <g id="Group_7639" data-name="Group 7639">
    <path id="Path_4812" data-name="Path 4812" d="M2902.427-2354.764a14.908,14.908,0,0,1-5.339-.82.986.986,0,0,0-1.012.147,11.984,11.984,0,0,1-5.765,2.338c-.377.044-.76.044-1.141.053-.205,0-.432.02-.533-.219a.551.551,0,0,1,.16-.606,14.917,14.917,0,0,0,1.719-2.4,12,12,0,0,0,.932-2.034.811.811,0,0,0-.165-.911,9.908,9.908,0,0,1-2.613-5.307,9.238,9.238,0,0,1,1.6-6.746,13.276,13.276,0,0,1,8.95-5.474,15.744,15.744,0,0,1,11.466,2.038,10.55,10.55,0,0,1,5.11,6.89,9.313,9.313,0,0,1-2.554,8.648,14.11,14.11,0,0,1-9.1,4.317c-.315.034-.632.068-.948.083C2902.891-2354.753,2902.588-2354.764,2902.427-2354.764Z" transform="translate(-2888.574 2377.043)" fill="#fff"/>
  </g>
</svg>
