<svg xmlns="http://www.w3.org/2000/svg" width="30" height="30" viewBox="0 0 30 30">
  <path id="Path_235" data-name="Path 235" d="M-466.189-420.3a15,15,0,0,0-15,15,15,15,0,0,0,15,15,15,15,0,0,0,15-15A15,15,0,0,0-466.189-420.3Zm8.427,10.667q-1.461,1.472-2.932,2.935l-7.684,7.686c-.214.214-.425.43-.644.639a.873.873,0,0,1-1.305,0q-2.57-2.564-5.134-5.133a.92.92,0,0,1-.038-1.4,11.961,11.961,0,0,1,.865-.845.872.872,0,0,1,1.147-.012,4,4,0,0,1,.316.294q1.7,1.695,3.393,3.391c.045.045.093.089.2.189a2.016,2.016,0,0,1,.178-.245q4.757-4.762,9.512-9.525a.923.923,0,0,1,1.442.01c.208.238.444.452.67.674A.85.85,0,0,1-457.762-409.629Z" transform="translate(481.189 420.296)" fill="#003398"/>
</svg>
