<svg xmlns="http://www.w3.org/2000/svg" width="15.72" height="24" viewBox="0 0 15.72 24">
  <g id="Group_7035" data-name="Group 7035" transform="translate(-4767.223 939.011)">
    <path id="Path_2715" data-name="Path 2715" d="M4774.235-887.908h.041a1.736,1.736,0,0,1,1.141.522,3.141,3.141,0,0,1,.569.744,2.788,2.788,0,0,0-.052.537,2.787,2.787,0,0,0,.642,1.776,2.487,2.487,0,0,0-.636.24,7.134,7.134,0,0,0-.555-1.964.4.4,0,0,0-.365-.229.406.406,0,0,0-.09.01.4.4,0,0,0-.315.395v3.226a11.731,11.731,0,0,0-.8,5.738,1.373,1.373,0,0,0,.8,1.178v5.039a.847.847,0,0,1-.846.846.847.847,0,0,1-.847-.846v-9.134a.4.4,0,0,0-.4-.4h-.469a.4.4,0,0,0-.4.4v9.134a.847.847,0,0,1-.847.846.847.847,0,0,1-.846-.846v-15.181a.4.4,0,0,0-.315-.395.406.406,0,0,0-.09-.01.4.4,0,0,0-.365.229c-.436.907-.909,2.786-.687,6.591a.405.405,0,0,1-.382.428h-.023a.405.405,0,0,1-.4-.381c-.239-4.091.267-6.848,1.462-7.971a1.737,1.737,0,0,1,1.139-.522h3.947m0-.4h-3.909l-.049,0a2.135,2.135,0,0,0-1.407.632c-1.3,1.226-1.84,4.015-1.589,8.29a.809.809,0,0,0,.807.762h.048a.81.81,0,0,0,.761-.855c-.208-3.556.195-5.451.647-6.392v15.181a1.251,1.251,0,0,0,1.251,1.251,1.251,1.251,0,0,0,1.251-1.251v-9.134h.469v9.134a1.251,1.251,0,0,0,1.251,1.251,1.251,1.251,0,0,0,1.251-1.251v-5.337a.959.959,0,0,1-.805-.9,11.2,11.2,0,0,1,.805-5.618v-3.326a7.784,7.784,0,0,1,.606,2.516,2.158,2.158,0,0,1,1.291-.613.839.839,0,0,1,.1-.006h.019c.024,0,.049,0,.073,0s.052,0,.077,0q-.024-.18-.052-.353a2.372,2.372,0,0,1-.794-1.772,2.38,2.38,0,0,1,.076-.6,3.641,3.641,0,0,0-.72-.98,2.135,2.135,0,0,0-1.409-.632l-.048,0Z" transform="translate(0 -45.568)" fill="#003398"/>
    <path id="Path_2716" data-name="Path 2716" d="M4797.006-938.606a1.874,1.874,0,0,1,1.872,1.872,1.874,1.874,0,0,1-1.872,1.872,1.874,1.874,0,0,1-1.872-1.872,1.874,1.874,0,0,1,1.872-1.872m0-.4a2.277,2.277,0,0,0-2.277,2.277,2.277,2.277,0,0,0,2.277,2.277,2.277,2.277,0,0,0,2.277-2.277,2.277,2.277,0,0,0-2.277-2.277Z" transform="translate(-24.723)" fill="#003398"/>
    <path id="Path_2717" data-name="Path 2717" d="M4841.723-842.5a.657.657,0,0,0-.074,0c-.027,0-.054,0-.081,0h-.011a.616.616,0,0,0-.07,0,1.884,1.884,0,0,0-1.193.61c-.956,1-1.382,3.118-1.234,6.113a.658.658,0,0,0,.656.625h.033a.657.657,0,0,0,.624-.689,9.69,9.69,0,0,1,.577-4.694v11.173a1.05,1.05,0,0,0,1.05,1.05,1.05,1.05,0,0,0,1.049-1.05v-5h.417v5a1.05,1.05,0,0,0,1.05,1.05,1.05,1.05,0,0,0,1.05-1.05v-11.173a9.684,9.684,0,0,1,.577,4.694.658.658,0,0,0,.625.689h.033a.658.658,0,0,0,.657-.625c.148-3-.279-5.109-1.235-6.113a1.884,1.884,0,0,0-1.193-.61.616.616,0,0,0-.07,0h-.011c-.027,0-.054,0-.081,0a.641.641,0,0,0-.073,0Z" transform="translate(-64.542 -86.738)" fill="#003398"/>
    <circle id="Ellipse_15" data-name="Ellipse 15" cx="2.074" cy="2.074" r="2.074" transform="translate(4776.641 -933.745)" fill="#003398"/>
  </g>
</svg>
