<svg xmlns="http://www.w3.org/2000/svg" width="13.927" height="14" viewBox="0 0 13.927 14">
  <g id="Group_7192" data-name="Group 7192" transform="translate(-578 -739)">
    <path id="Path_2661" data-name="Path 2661" d="M7408.875-3633.9c-1.14-.678-2.275-1.364-3.412-2.048-.252-.152-.492-.32-.729-.5a2.869,2.869,0,0,0-3.16-.291.337.337,0,0,1-.47-.078q-2.385-2.4-4.785-4.781c-.09-.09-.182-.181-.28-.262a.52.52,0,0,0-.583-.062.558.558,0,0,0-.333.517.766.766,0,0,0,.311.576q2.405,2.4,4.814,4.793c.18.177.241.3.094.542a2.729,2.729,0,0,0-.34,1.328,2.959,2.959,0,0,0,.547,1.684c.173.238.365.459.517.716.7,1.185,1.415,2.36,2.117,3.542.112.188.174.251.365.059q2.681-2.707,5.385-5.391C7409.119-3633.736,7409.054-3633.79,7408.875-3633.9Zm-7.329.811a1.757,1.757,0,0,1,.229-2.386,1.854,1.854,0,0,1,1.149-.431,1.867,1.867,0,0,1,1.077.375c.124.09.144.152.025.269q-1.1,1.088-2.185,2.189C7401.718-3632.943,7401.653-3632.961,7401.546-3633.086Zm5.555-.289q-1.707,1.694-3.406,3.4c-.028.027-.059.052-.084.074-.087.011-.1-.06-.127-.1-.356-.588-.708-1.178-1.066-1.764a.171.171,0,0,1,.028-.251q1.309-1.3,2.607-2.609a.186.186,0,0,1,.276-.024q.867.53,1.74,1.049C7407.2-3633.534,7407.211-3633.484,7407.1-3633.375Z" transform="translate(-6817.117 4380.977)" fill="#fff"/>
    <path id="Path_2662" data-name="Path 2662" d="M7400.591-3424.942c-.875.009-1.751,0-2.627,0-.9,0-1.791.006-2.686,0-.208,0-.279.06-.265.267a5.722,5.722,0,0,1,0,.679c-.008.17.06.218.223.218q2.7-.006,5.4,0c.156,0,.208-.054.2-.206a6.853,6.853,0,0,1,0-.708C7400.855-3424.892,7400.781-3424.944,7400.591-3424.942Z" transform="translate(-6817.012 4176.78)" fill="#fff"/>
    <path id="Path_2663" data-name="Path 2663" d="M7436.1-3465.191c-.4.008-.807-.006-1.209.005-.3.008-.721-.138-.87.063s-.04.6-.056.916c-.008.159.053.2.2.2.324-.009.649,0,.974,0,.088,0,.177.005.266,0,.29-.02.678.129.846-.062s.04-.584.055-.887c0-.01,0-.02,0-.029C7436.326-3465.143,7436.255-3465.194,7436.1-3465.191Z" transform="translate(-6853.641 4214.684)" fill="#fff"/>
  </g>
</svg>
