<svg xmlns="http://www.w3.org/2000/svg" width="20" height="20" viewBox="0 0 12 11.979">
  <path id="Path_61" data-name="Path 61" d="M-1157.677-2857.141a5.933,5.933,0,0,0-6,5.963,5.934,5.934,0,0,0,6.018,6.014,6,6,0,0,0,5.982-6A6,6,0,0,0-1157.677-2857.141Zm2.868,8.03c-.263.264-.525.529-.791.791-.248.244-.371.248-.625-.009-.41-.414-.818-.831-1.212-1.259-.169-.185-.285-.19-.461,0-.413.438-.845.858-1.272,1.282-.229.228-.352.231-.583.01-.269-.258-.529-.525-.792-.79a.347.347,0,0,1,.008-.567c.446-.432.877-.88,1.324-1.312.155-.149.148-.253,0-.4-.449-.429-.885-.871-1.332-1.3a.314.314,0,0,1-.015-.516c.292-.289.586-.577.871-.873.19-.2.349-.136.513.028.4.406.812.81,1.215,1.218.293.3.291.3.595-.006.385-.385.768-.773,1.155-1.157.275-.273.372-.275.64-.011s.511.516.771.769a.33.33,0,0,1,0,.542c-.436.429-.86.87-1.3,1.292-.175.166-.167.278,0,.44.429.408.843.833,1.262,1.251a.467.467,0,0,1,.183.306A.431.431,0,0,1-1154.81-2849.112Z" transform="translate(1163.673 2857.144)" fill="#7b7c7e"/>
</svg>
