<svg xmlns="http://www.w3.org/2000/svg" width="15.966" height="16" viewBox="0 0 15.966 16">
  <g id="Group_239" data-name="Group 239" transform="translate(808.036 2092.35)">
    <path id="Path_83" data-name="Path 83" d="M-795.193-2085.2q-4.126,4.11-8.235,8.236a.984.984,0,0,1-.641.279q-1.5.163-3.007.33c-.621.069-.966-.229-.959-.913.077-.7.162-1.472.248-2.244a3.984,3.984,0,0,0,.068-.606,1.439,1.439,0,0,1,.545-1.124q3.974-3.947,7.926-7.916c.278-.278.278-.278.557,0,1.166,1.167,2.328,2.336,3.5,3.494C-795-2085.482-795.016-2085.382-795.193-2085.2Zm2.692-2.7c-.524.523-1.051,1.044-1.569,1.574-.135.138-.224.175-.381.017q-1.808-1.826-3.633-3.635c-.147-.146-.144-.243,0-.385.53-.517,1.043-1.052,1.576-1.567a1.5,1.5,0,0,1,2.165.024c.611.607,1.217,1.219,1.828,1.826a1.4,1.4,0,0,1,.441,1.083A1.374,1.374,0,0,1-792.5-2087.9Z" transform="translate(0)" fill="#7b7c7e"/>
  </g>
</svg>
