<svg id="Group_7638" data-name="Group 7638" xmlns="http://www.w3.org/2000/svg" width="32.023" height="24" viewBox="0 0 32.023 24">
  <path id="Path_4811" data-name="Path 4811" d="M3469.786-1572.106q-12.888-.011-25.777,0a2.908,2.908,0,0,0-3.12,3.143q-.012,8.852,0,17.7a2.9,2.9,0,0,0,3.16,3.145q6.43,0,12.861,0t12.861,0a2.876,2.876,0,0,0,3.134-3.1q0-8.88,0-17.76A2.9,2.9,0,0,0,3469.786-1572.106Zm-.532,21.056q-6.179-.015-12.36-.006h-12.249c-.8,0-.815-.012-.816-.8q0-5.039,0-10.077c0-.2-.09-.462.11-.568s.355.137.506.256q3.818,3.023,7.631,6.053a14.162,14.162,0,0,0,1.845,1.243,5.807,5.807,0,0,0,6.368-.241c1.527-.965,2.848-2.2,4.273-3.3,1.632-1.256,3.238-2.546,4.858-3.818.125-.1.252-.282.425-.2s.109.3.109.458c0,3.452-.007,6.9.011,10.356C3469.972-1551.139,3469.719-1551.048,3469.253-1551.05Zm-.647-14.409c-2.954,2.214-5.8,4.568-8.7,6.857-.451.356-.933.674-1.415.986a2.79,2.79,0,0,1-3.192-.005,30.273,30.273,0,0,1-3.013-2.285c-2.592-2.047-5.177-4.106-7.784-6.134a1.447,1.447,0,0,1-.68-1.406,7.71,7.71,0,0,0,.006-1.168c-.017-.41.171-.578.568-.553.167.011.334,0,.5,0h12.029q6.126,0,12.251,0c.764,0,.7.028.8.779A2.886,2.886,0,0,1,3468.606-1565.458Z" transform="translate(-3440.882 1572.111)" fill="#fff"/>
</svg>
