<svg xmlns="http://www.w3.org/2000/svg" width="16" height="9.295" viewBox="0 0 16 9.295">
  <g id="Group_7197" data-name="Group 7197" transform="translate(-685.3 -1094)">
    <path id="Path_108" data-name="Path 108" d="M44.283,235.369a.714.714,0,0,0-.093-.238,8.879,8.879,0,0,0-2.476-2.582,8.429,8.429,0,0,0-1.441-.807,9.781,9.781,0,0,0-1.8-.607,10.1,10.1,0,0,0-3.915-.083,8.791,8.791,0,0,0-1.664.457,9.559,9.559,0,0,0-1.662.816,8.98,8.98,0,0,0-2.6,2.476c-.074.108-.147.218-.217.329a.821.821,0,0,0,0,.835,8.852,8.852,0,0,0,2.476,2.581,8.428,8.428,0,0,0,1.441.807,9.781,9.781,0,0,0,1.8.607,10.1,10.1,0,0,0,3.915.083,8.792,8.792,0,0,0,1.664-.457,9.559,9.559,0,0,0,1.662-.816,8.98,8.98,0,0,0,2.6-2.476c.055-.079.108-.159.159-.24h0c.008-.012.018-.023.025-.035h0a.777.777,0,0,0,.116-.251.074.074,0,0,0,0-.018A.87.87,0,0,0,44.283,235.369Zm-9.378-2.3a1.965,1.965,0,0,1,.844-.5,2.011,2.011,0,0,1,.553-.081.468.468,0,0,1,.245.066.527.527,0,0,1,.251.43.5.5,0,0,1-.5.5c-.045,0-.089,0-.132.007a1.622,1.622,0,0,0-.248.068,1.77,1.77,0,0,0-.189.106l-.031.022c-.031.028-.063.056-.094.086s-.058.061-.086.093a.352.352,0,0,0-.022.031,1.6,1.6,0,0,0-.106.187,1.428,1.428,0,0,0-.068.25c0,.045-.007.088-.007.132a.5.5,0,1,1-.993,0A2.007,2.007,0,0,1,34.905,233.068Zm7.548,2.526-.129.167.063-.083a8,8,0,0,1-1.275,1.272l.084-.063-.167.129c.028-.021.056-.043.083-.066a8.479,8.479,0,0,1-1.684.981l.094-.04-.2.083.1-.045a8.874,8.874,0,0,1-2.028.553l.1-.012-.22.03.122-.017a9.206,9.206,0,0,1-2.2,0c.041.007.081.012.122.017l-.22-.03c.033,0,.065.008.1.012a8.814,8.814,0,0,1-2.028-.553l.1.045-.2-.083.094.04a8.4,8.4,0,0,1-1.684-.981l.083.066-.167-.129c.028.021.056.043.084.063a8,8,0,0,1-1.323-1.332l.012.017-.031-.041.02.025-.05-.069.073-.1c-.015.018-.03.038-.045.058.033-.041.063-.084.1-.126l-.05.068a7.98,7.98,0,0,1,1.287-1.29l-.071.055.167-.129-.1.074a8.444,8.444,0,0,1,1.7-.989l-.094.038.2-.083-.1.045.2-.079a3.316,3.316,0,0,0-.306,1.156,3.233,3.233,0,0,0,1.848,3.148,3.33,3.33,0,0,0,2.059.24,3.243,3.243,0,0,0,2.514-2.624,3.77,3.77,0,0,0,.048-.528s0,0,0-.007,0,0,0-.007v0s0-.01,0-.015a3.26,3.26,0,0,0-.3-1.356c.063.023.127.048.189.074l-.1-.045.2.083-.094-.04a8.419,8.419,0,0,1,1.686.983l-.086-.068.167.129-.081-.063a8.084,8.084,0,0,1,1.272,1.267c-.02-.026-.04-.053-.061-.079.043.056.086.112.129.167l-.069-.088c.033.043.065.088.1.132l-.094.129A.651.651,0,0,0,42.453,235.594Z" transform="translate(657 863.101)" fill="#003398"/>
  </g>
</svg>
