<svg id="Group_6894" data-name="Group 6894" xmlns="http://www.w3.org/2000/svg" width="19.994" height="24" viewBox="0 0 19.994 24">
  <path id="Path_2675" data-name="Path 2675" d="M42.268,196.036a.48.48,0,1,0,.48.48A.48.48,0,0,0,42.268,196.036Z" transform="translate(-36.487 -182.16)" fill="#818284"/>
  <circle id="Ellipse_9" data-name="Ellipse 9" cx="0.72" cy="0.72" r="0.72" transform="matrix(0.973, -0.23, 0.23, 0.973, 6.133, 8.917)" fill="#818284"/>
  <path id="Path_2676" data-name="Path 2676" d="M32.348,130.51a6.8,6.8,0,1,0,6.8,6.8A6.8,6.8,0,0,0,32.348,130.51Zm-3,1.855a2.2,2.2,0,1,1-2.2,2.2A2.2,2.2,0,0,1,29.35,132.365Zm-1.217,8.621a1.519,1.519,0,1,1,1.519-1.519A1.519,1.519,0,0,1,28.132,140.986Zm4.216,2.572a2.2,2.2,0,1,1,2.2-2.2A2.2,2.2,0,0,1,32.348,143.558Zm5.735-4.092a1.519,1.519,0,1,1-1.519-1.519A1.519,1.519,0,0,1,38.083,139.467Zm-2.737-2.7a2.2,2.2,0,1,1,2.2-2.2A2.2,2.2,0,0,1,35.346,136.762Z" transform="translate(-22.351 -125.111)" fill="#818284"/>
  <circle id="Ellipse_10" data-name="Ellipse 10" cx="0.72" cy="0.72" r="0.72" transform="matrix(0.973, -0.23, 0.23, 0.973, 12.129, 8.917)" fill="#818284"/>
  <circle id="Ellipse_11" data-name="Ellipse 11" cx="0.72" cy="0.72" r="0.72" transform="matrix(0.973, -0.23, 0.23, 0.973, 9.131, 15.713)" fill="#818284"/>
  <path id="Path_2677" data-name="Path 2677" d="M20.214,97.6A9.994,9.994,0,0,0,14.5,91.686L13.976,89.2a.6.6,0,0,0-.571-.417h-.6v.52h-4v-.52h-.6a.6.6,0,0,0-.571.417l-.519,2.489a9.994,9.994,0,0,0,.313,18.7v1.2a1.2,1.2,0,0,0,1.2,1.2h4.352a1.2,1.2,0,0,0,1.2-1.2v-1.2A9.994,9.994,0,0,0,20.214,97.6ZM8.808,89.9h4v1.283a9.99,9.99,0,0,0-4,0Zm3.975,19.44v1.242a.4.4,0,0,1-.4.4H9.231a.4.4,0,0,1-.4-.4v-1.242a8.595,8.595,0,1,1,3.952,0Z" transform="translate(-0.81 -88.78)" fill="#818284"/>
  <path id="Path_2678" data-name="Path 2678" d="M106.963,196.516a.48.48,0,1,0,.48-.48A.48.48,0,0,0,106.963,196.516Z" transform="translate(-93.23 -182.16)" fill="#818284"/>
  <line id="Line_57" data-name="Line 57" x1="0.959" transform="translate(13.733 14.355)" fill="#414441"/>
</svg>
