<svg id="Group_6892" data-name="Group 6892" xmlns="http://www.w3.org/2000/svg" width="15.032" height="24" viewBox="0 0 15.032 24">
  <g id="HATCH" transform="translate(0 0)">
    <path id="Path_2673" data-name="Path 2673" d="M221.132,88.167h.3a3.5,3.5,0,1,1,0,7.008h-5.676a3.5,3.5,0,1,1,0-7.008h.3v-.751a7.514,7.514,0,0,1-.236-14.056l.39-1.872a.451.451,0,0,1,.429-.313h.451v.391H220.1v-.391h.451a.451.451,0,0,1,.429.313l.39,1.872a7.514,7.514,0,0,1-.236,14.056v.751Zm-2.538,5.956h-2.838a2.452,2.452,0,1,1,0-4.9h5.676a2.452,2.452,0,1,1,0,4.9Zm4.792-2.452a1.954,1.954,0,1,0-1.954,1.954,1.954,1.954,0,0,0,1.954-1.954Zm-.751,0a1.2,1.2,0,1,0-1.2,1.2,1.2,1.2,0,0,0,1.2-1.2Zm-.661,0a.541.541,0,1,0-.541.541.541.541,0,0,0,.541-.541Zm-4.264,0a1.954,1.954,0,1,0-1.954,1.954,1.953,1.953,0,0,0,1.954-1.954Zm-.751,0a1.2,1.2,0,1,0-1.2,1.2,1.2,1.2,0,0,0,1.2-1.2Zm-.661,0a.541.541,0,1,0-.541.541.541.541,0,0,0,.541-.541Zm.794-19.655H220.1v.965a7.511,7.511,0,0,0-3.006,0v-.965Zm5.815,9.951a1.142,1.142,0,1,0-1.142,1.142,1.142,1.142,0,0,0,1.142-1.142Zm-.781,0a.361.361,0,1,0-.361.361.361.361,0,0,0,.361-.361Zm-5.558,0a1.142,1.142,0,1,0-1.142,1.142,1.142,1.142,0,0,0,1.142-1.142Zm-.781,0a.361.361,0,1,0-.361.361.361.361,0,0,0,.361-.361Zm2.208-3.686a1.653,1.653,0,1,0-1.653,1.653,1.653,1.653,0,0,0,1.653-1.653Zm-1.112,0a.541.541,0,1,0-.541.541.541.541,0,0,0,.541-.541Zm5.621,0a1.653,1.653,0,1,0-1.653,1.653,1.653,1.653,0,0,0,1.653-1.653Zm-1.112,0a.541.541,0,1,0-.541.541.541.541,0,0,0,.541-.541Zm-1.142,5.109a1.653,1.653,0,1,0-1.653,1.653,1.653,1.653,0,0,0,1.653-1.653Zm-1.112,0a.541.541,0,1,0-.541.541.541.541,0,0,0,.541-.541Zm4.568-3.048a5.109,5.109,0,1,0-5.109,5.109,5.109,5.109,0,0,0,5.109-5.109Zm-6.6,7.223a.3.3,0,0,0,.3.3h2.37a.3.3,0,0,0,.3-.3v-.934a6.462,6.462,0,1,0-2.971,0v.934Z" transform="translate(-211.078 -71.175)" fill="#818284" fill-rule="evenodd"/>
  </g>
  <g id="HATCH-2" data-name="HATCH" transform="translate(2.406 4.059)">
    <path id="Path_2674" data-name="Path 2674" d="M246.039,118.014a5.109,5.109,0,1,0-5.109,5.109,5.109,5.109,0,0,0,5.109-5.109Zm-5.711-2.062a1.653,1.653,0,1,0-1.653,1.653,1.653,1.653,0,0,0,1.653-1.653Zm4.508,0a1.653,1.653,0,1,0-1.653,1.653,1.653,1.653,0,0,0,1.653-1.653Zm.4,3.686a1.142,1.142,0,1,0-1.142,1.142,1.142,1.142,0,0,0,1.142-1.142Zm-2.659,1.423a1.653,1.653,0,1,0-1.653,1.653,1.653,1.653,0,0,0,1.653-1.653Zm-3.681-1.423a1.142,1.142,0,1,0-1.142,1.142,1.142,1.142,0,0,0,1.142-1.142Zm.314-3.686a.541.541,0,1,0-.541.541.541.541,0,0,0,.541-.541Zm4.508,0a.541.541,0,1,0-.541.541.541.541,0,0,0,.541-.541Zm.735,3.686a.361.361,0,1,0-.361.361.361.361,0,0,0,.361-.361Zm-2.989,1.423a.541.541,0,1,0-.541.541.541.541,0,0,0,.541-.541Zm-3.35-1.423a.361.361,0,1,0-.361.361.361.361,0,0,0,.361-.361Zm1.924,9.7a1.954,1.954,0,1,0-1.954,1.954,1.954,1.954,0,0,0,1.954-1.954Zm5.676,0a1.954,1.954,0,1,0-1.954,1.954,1.954,1.954,0,0,0,1.954-1.954Zm-.751,0a1.2,1.2,0,1,0-1.2,1.2,1.2,1.2,0,0,0,1.2-1.2Zm-.661,0a.541.541,0,1,0-.541.541.541.541,0,0,0,.541-.541Zm-5.015,0a1.2,1.2,0,1,0-1.2,1.2,1.2,1.2,0,0,0,1.2-1.2Zm-.661,0a.541.541,0,1,0-.541.541.541.541,0,0,0,.541-.541Z" transform="translate(-235.82 -112.905)" fill="#818284" fill-rule="evenodd"/>
  </g>
</svg>
