<svg xmlns="http://www.w3.org/2000/svg" width="16" height="14" viewBox="0 0 16 14">
  <path id="Path_2757" data-name="Path 2757" d="M13.621.423A4.024,4.024,0,0,0,8.147,2.53h0a3.518,3.518,0,0,0-.142.4,3.518,3.518,0,0,0-.142-.4A4.029,4.029,0,0,0,2.395.4,4.465,4.465,0,0,0,.384,6.187l.011.024c.73,1.658,5.295,6.062,7.071,7.568a.82.82,0,0,0,.144.109l0,0a.71.71,0,0,0,.083.043l.041.017c.018.008.036.013.053.019a.452.452,0,0,0,.059.015.339.339,0,0,0,.043.008.593.593,0,0,0,.06.008.457.457,0,0,0,.053,0,.44.44,0,0,0,.05,0c.02,0,.041,0,.06-.008l.046-.008c.018,0,.037-.009.055-.015a.48.48,0,0,0,.055-.019l.037-.015c.028-.013.057-.028.085-.043l0,0a.728.728,0,0,0,.135-.1c1.789-1.514,6.351-5.917,7.083-7.576A4.464,4.464,0,0,0,13.621.423Z" transform="translate(-0.003 -0.001)" fill="#013398"/>
</svg>
