<svg xmlns="http://www.w3.org/2000/svg" width="20" height="14.161" viewBox="0 0 20 14.161">
  <g id="Group_8285" data-name="Group 8285" transform="translate(-4.16 -17.56)">
    <path id="Compound_Path" data-name="Compound Path" d="M30.962,25a.436.436,0,0,0-.092-.268L29.605,23.11h0l-1.4-2.945a2.631,2.631,0,0,0-2.363-1.492H23.279V18a.436.436,0,0,0-.436-.436H13.514a.436.436,0,1,0,0,.873h8.892v4.882a.436.436,0,0,0,.436.436h6.163L30.1,25.145v3.724h-1.68a2.424,2.424,0,0,0-4.773,0H19.315a2.424,2.424,0,0,0-4.773,0H13.3a.436.436,0,1,0,0,.873h1.25a2.426,2.426,0,0,0,4.769,0h4.324a2.426,2.426,0,0,0,4.769,0h1.682a.873.873,0,0,0,.873-.873Zm-7.683-5.454h2.565a1.745,1.745,0,0,1,1.575.995l1.119,2.347h-5.26ZM16.928,30.85A1.555,1.555,0,1,1,18.482,29.3,1.555,1.555,0,0,1,16.928,30.85Zm9.095,0A1.555,1.555,0,1,1,27.579,29.3,1.555,1.555,0,0,1,26.023,30.85Z" transform="translate(-6.802)"/>
    <path id="Path" d="M12.432,54.436A.436.436,0,0,0,12,54H9.6a.436.436,0,1,0,0,.873H12A.436.436,0,0,0,12.432,54.436Z" transform="translate(-3.909 -28.49)"/>
    <path id="Path-2" data-name="Path" d="M4.6,42.873H9.614a.436.436,0,1,0,0-.873H4.6a.436.436,0,1,0,0,.873Z" transform="translate(0 -19.107)"/>
    <path id="Path-3" data-name="Path" d="M9.16,30.436a.436.436,0,0,0,.436.436h5.017a.436.436,0,0,0,0-.873H9.6A.436.436,0,0,0,9.16,30.436Z" transform="translate(-3.909 -9.727)"/>
  </g>
</svg>
