<svg xmlns="http://www.w3.org/2000/svg" width="20" height="10.422" viewBox="0 0 20 10.422">
  <g id="Group_7074" data-name="Group 7074" transform="translate(-3660.449 1927.471)">
    <path id="Path_2683" data-name="Path 2683" d="M3670.438-1924.216h-8.949c-.83,0-1.038-.207-1.039-1.028,0-.491,0-.981,0-1.471a.649.649,0,0,1,.573-.7,2.988,2.988,0,0,1,.591-.054q8.869,0,17.739,0a2.276,2.276,0,0,1,.513.041.666.666,0,0,1,.58.7c0,.6.008,1.193,0,1.79a.7.7,0,0,1-.66.714,3.805,3.805,0,0,1-.437.01Z" transform="translate(0 0)"/>
    <path id="Path_2684" data-name="Path 2684" d="M3670.453-1879.217h-8.989c-.8,0-1.014-.216-1.015-1.013,0-.49,0-.981,0-1.471a.662.662,0,0,1,.6-.72,2.956,2.956,0,0,1,.553-.048q8.889,0,17.778,0c.861,0,1.069.214,1.07,1.083,0,.451,0,.9,0,1.352a.726.726,0,0,1-.806.816c-.875.011-1.75,0-2.625,0Z" transform="translate(0 -37.834)"/>
  </g>
</svg>
