<svg xmlns="http://www.w3.org/2000/svg" width="33.836" height="40" viewBox="0 0 33.836 40">
  <g id="Group_555" data-name="Group 555" transform="translate(0 0.002)">
    <path id="Path_245" data-name="Path 245" d="M1.31,9.516c5.509-3.178,10.9-6.284,16.279-9.4a.711.711,0,0,1,.8.01q8.07,4.673,16.15,9.33c-.135.362-.446.425-.688.568Q26.281,14.4,18.71,18.774a1.157,1.157,0,0,1-1.332.087Q9.569,14.313,1.732,9.815C1.625,9.751,1.527,9.67,1.31,9.516Z" transform="translate(-1.051 0)"/>
    <path id="Path_246" data-name="Path 246" d="M15.607,93.281a1.681,1.681,0,0,1-.936-.394c-4.6-2.607-9.187-5.229-13.8-7.815A1.427,1.427,0,0,1,0,83.633c.034-5.625.02-11.252.02-16.879v-.86c.4-.109.613.148.856.285q7.031,3.976,14.055,7.963a1.141,1.141,0,0,1,.758,1.108c-.032,5.823-.018,11.648-.022,17.47C15.665,92.908,15.627,93.094,15.607,93.281Z" transform="translate(0 -53.287)"/>
    <path id="Path_247" data-name="Path 247" d="M109.4,65.34c0,6.175,0,12.2.006,18.214a.854.854,0,0,1-.477.868q-7.42,4.189-14.824,8.406a.649.649,0,0,1-.208.034c-.257-.188-.14-.475-.14-.712q-.012-8.586-.01-17.174c0-.471.008-.847.524-1.137,4.9-2.747,9.773-5.528,14.658-8.3C109.034,65.482,109.153,65.445,109.4,65.34Z" transform="translate(-75.566 -52.864)"/>
  </g>
</svg>
