<svg xmlns="http://www.w3.org/2000/svg" width="11.223" height="14" viewBox="0 0 11.223 14">
  <g id="Group_7227" data-name="Group 7227" transform="translate(-7638.252 2561.35)">
    <path id="Path_4722" data-name="Path 4722" d="M7649.469-2556.789c0-.571.008-1,0-1.418a.617.617,0,0,0-.629-.684c-.173-.022-.348-.029-.519-.06a6.882,6.882,0,0,1-3.895-2.093.667.667,0,0,0-1.124,0,7,7,0,0,1-1.7,1.323,7.024,7.024,0,0,1-2.762.835.565.565,0,0,0-.568.578,17.2,17.2,0,0,0,.213,3.968,10.365,10.365,0,0,0,4.946,6.857.778.778,0,0,0,.864,0,10.373,10.373,0,0,0,3.44-3.259A10.265,10.265,0,0,0,7649.469-2556.789Z"/>
  </g>
</svg>
