<svg xmlns="http://www.w3.org/2000/svg" width="24.925" height="30" viewBox="0 0 24.925 30" fill="#003398">
  <g id="Group_7046" data-name="Group 7046" transform="translate(-930.001 -446)">
    <g id="Group_7045" data-name="Group 7045" transform="translate(930.001 446)">
      <path id="Path_2723" data-name="Path 2723" d="M383.512,465.857l1.382-1.644a6.026,6.026,0,0,0,4.131,1.7c1.42,0,2.317-.654,2.317-1.645v-.037c0-.934-.524-1.439-2.952-2-2.785-.673-4.354-1.5-4.354-3.906v-.037c0-2.242,1.868-3.794,4.466-3.794a7.251,7.251,0,0,1,4.746,1.645l-1.233,1.738a5.94,5.94,0,0,0-3.551-1.345c-1.345,0-2.13.691-2.13,1.551v.037c0,1.009.6,1.457,3.1,2.056,2.766.673,4.2,1.663,4.2,3.831v.038c0,2.448-1.925,3.906-4.671,3.906a8.055,8.055,0,0,1-5.457-2.094" transform="translate(-376.099 -446.201)"/>
      <path id="Path_2724" data-name="Path 2724" d="M356.245,436.227a9.98,9.98,0,0,1,9.95-9.984h.013l0-2.495h-.015V421.2l-1.526,2.655a12.453,12.453,0,0,0,.066,24.722l-1.7-2.929a9.979,9.979,0,0,1-6.784-9.421" transform="translate(-353.751 -421.2)"/>
      <path id="Path_2725" data-name="Path 2725" d="M416.283,444.188a12.477,12.477,0,0,0-10.921-12.335l1.729,2.952a9.961,9.961,0,0,1-3.242,19.372l0,1.031-.018,0,.01,3.989,1.514-2.632a12.474,12.474,0,0,0,10.925-12.379" transform="translate(-391.358 -429.199)"/>
    </g>
  </g>
</svg>
