<svg xmlns="http://www.w3.org/2000/svg" width="20" height="17.327" viewBox="0 0 20 17.327">
  <g id="Group_8079" data-name="Group 8079" transform="translate(-78 -136)">
    <path id="Path_4922" data-name="Path 4922" d="M157.7,425.41H142.176a.777.777,0,0,1-.776-.777V414.5h.691v10.134a.087.087,0,0,0,.085.085H157.7a.087.087,0,0,0,.085-.085V414.5h.691v10.134A.777.777,0,0,1,157.7,425.41Z" transform="translate(-61.939 -272.083)"/>
    <path id="Path_4923" data-name="Path 4923" d="M258.78,529.456H253.4V521h5.38Zm-4.689-.691h4v-7.074h-4Z" transform="translate(-171.359 -376.129)"/>
    <path id="Path_4924" data-name="Path 4924" d="M563.973,525.873H559.1V521h4.873Zm-4.182-.691h3.491v-3.491h-3.491Z" transform="translate(-470.015 -376.129)"/>
    <path id="Path_4925" data-name="Path 4925" d="M80.283,142.82h0a2.407,2.407,0,0,1-.555-.067h0A2.271,2.271,0,0,1,78,140.546v-3.765a.782.782,0,0,1,.781-.781h3.781v4.546a.265.265,0,0,1,0,.044,2.274,2.274,0,0,1-2.276,2.23Zm-.4-.74a1.641,1.641,0,0,0,.392.048h0a1.589,1.589,0,0,0,1.585-1.569.211.211,0,0,1,0-.039v-3.829h-3.09a.091.091,0,0,0-.09.09v3.765A1.576,1.576,0,0,0,79.887,142.081Z"/>
    <path id="Path_4926" data-name="Path 4926" d="M248.072,142.82a2.27,2.27,0,0,1-2.272-2.253v0a.449.449,0,0,1,0-.058V136h4.539v4.546A2.275,2.275,0,0,1,248.072,142.82Zm-1.581-2.224a1.581,1.581,0,0,0,3.161-.051v-3.855H246.5v3.855A.318.318,0,0,1,246.491,140.6Z" transform="translate(-163.934)"/>
    <path id="Path_4927" data-name="Path 4927" d="M415.281,142.82A2.28,2.28,0,0,1,413,140.546V136h4.562v4.546A2.28,2.28,0,0,1,415.281,142.82Zm-1.59-6.129v3.855a1.59,1.59,0,0,0,3.18,0v-3.855Z" transform="translate(-327.281)"/>
    <path id="Path_4928" data-name="Path 4928" d="M583.272,142.82A2.275,2.275,0,0,1,581,140.546V136h4.539v4.525a.429.429,0,0,1,0,.062v.007a2.274,2.274,0,0,1-2.272,2.226Zm-1.581-6.129v3.855a1.581,1.581,0,0,0,3.161.058.387.387,0,0,1,0-.058v-3.855Z" transform="translate(-491.41)"/>
    <path id="Path_4929" data-name="Path 4929" d="M750.283,142.82A2.278,2.278,0,0,1,748,140.6h0c0-.012,0-.028,0-.048V136h3.781a.782.782,0,0,1,.781.781v3.765a2.268,2.268,0,0,1-2.279,2.274Zm-1.59-2.237a1.6,1.6,0,0,0,1.588,1.546,1.629,1.629,0,0,0,.392-.046,1.58,1.58,0,0,0,1.2-1.537v-3.765a.092.092,0,0,0-.09-.09h-3.09v3.848C748.691,140.548,748.694,140.565,748.694,140.583Z" transform="translate(-654.562)"/>
  </g>
</svg>
