<svg width="19px" height="15px" viewBox="0 0 19 15" version="1.1" xmlns="http://www.w3.org/2000/svg" xmlns:xlink="http://www.w3.org/1999/xlink">
    <title>Icon_Global_Check_Circle</title>
    <g id="Page-1" stroke="none" stroke-width="1" fill="none" fill-rule="evenodd">
        <g id="Icon_Global_Check_Circle" fill="#ffffff" fill-rule="nonzero">
            <path d="M15.495,5.598 L7.811,13.284 C7.597,13.498 7.386,13.714 7.167,13.923 C7.00133271,14.1093832 6.76386793,14.2160235 6.5145,14.2160235 C6.26513207,14.2160235 6.02766729,14.1093832 5.862,13.923 C4.14866667,12.2136667 2.43733333,10.5026667 0.728,8.79 C0.518197214,8.62083413 0.393121579,8.36818062 0.385809068,8.09877233 C0.378496557,7.82936403 0.489682654,7.5702977 0.69,7.39 C0.963901809,7.09392918 1.25260399,6.8119022 1.555,6.545 C1.88052637,6.25470569 2.37047139,6.24957985 2.702,6.533 C2.81254771,6.6252415 2.91803457,6.72338434 3.018,6.827 C4.15133333,7.957 5.28233333,9.08733333 6.411,10.218 C6.456,10.263 6.504,10.307 6.611,10.407 C6.66410693,10.3209861 6.7236081,10.2390885 6.789,10.162 C9.96033333,6.98733333 13.131,3.81233333 16.301,0.637 C16.4776672,0.41906575 16.7438643,0.293311921 17.0244046,0.295213427 C17.3049449,0.29720291 17.5693723,0.426636521 17.743,0.647 C17.951,0.885 18.187,1.099 18.413,1.321 C18.6233031,1.4797588 18.7480865,1.7270742 18.7509177,1.99055901 C18.7535676,2.25404381 18.6339554,2.50390121 18.427,2.667 C17.453,3.64433333 16.4756667,4.62266667 15.495,5.598 Z" id="Path_235"></path>
        </g>
    </g>
</svg>