<svg xmlns="http://www.w3.org/2000/svg" width="9.981" height="10" viewBox="0 0 9.981 10">
  <path id="Path_61" data-name="Path 61" d="M-1149.969-2844.808c-.435.437-.869.876-1.308,1.309-.41.4-.614.409-1.033-.015-.678-.684-1.352-1.374-2-2.083-.28-.3-.471-.314-.762-.006-.683.724-1.4,1.419-2.1,2.121-.379.376-.583.383-.965.016-.445-.427-.875-.869-1.309-1.307a.573.573,0,0,1,.014-.937c.738-.715,1.45-1.457,2.19-2.17.257-.247.245-.418-.006-.658-.743-.709-1.465-1.441-2.2-2.156a.519.519,0,0,1-.024-.853c.484-.478.969-.954,1.44-1.444.314-.327.578-.226.849.047.669.672,1.343,1.34,2.01,2.014.485.49.482.494.984-.009.637-.638,1.27-1.278,1.91-1.914.455-.453.615-.455,1.059-.019.428.421.846.853,1.276,1.273a.546.546,0,0,1,0,.9c-.721.71-1.424,1.439-2.156,2.137-.289.275-.276.459.006.728.71.676,1.395,1.377,2.089,2.07a.773.773,0,0,1,.3.506A.71.71,0,0,1-1149.969-2844.808Z" transform="translate(1159.695 2853.195)"/>
</svg>
