<svg xmlns="http://www.w3.org/2000/svg" width="24" height="18.664" viewBox="0 0 24 18.664">
  <g id="Group_7105" data-name="Group 7105" transform="translate(-145 -483)">
    <path id="Path_2599" data-name="Path 2599" d="M46.977,2.371A2.125,2.125,0,0,0,44.6,0q-7.62-.007-15.241,0a2.124,2.124,0,0,0-2.372,2.376q-.009,4.957,0,9.913a2.126,2.126,0,0,0,2.379,2.37c2.539.006,5.08,0,7.62,0s5.08,0,7.62,0a2.126,2.126,0,0,0,2.373-2.376Q46.986,7.328,46.977,2.371Zm-15.3-.381A2.025,2.025,0,0,1,33.633,4a1.986,1.986,0,0,1-3.971-.053A2.022,2.022,0,0,1,31.673,1.99ZM43.444,12.006C41.274,11.98,39.1,12,36.933,12c-2.145,0-4.292-.018-6.437.01-.642.009-.845-.218-.869-.857a2.179,2.179,0,0,1,.8-1.945A18.364,18.364,0,0,0,31.8,7.855a.642.642,0,0,1,1.029-.01c.334.329.691.639.992,1,.363.431.629.387,1.011,0,1.551-1.588,3.129-3.147,4.7-4.716.723-.722.848-.723,1.555-.019.91.9,1.806,1.822,2.726,2.714a1.486,1.486,0,0,1,.506,1.171c-.024,1.06-.036,2.121,0,3.181C44.347,11.832,44.065,12.013,43.444,12.006Z" transform="translate(122.019 483.002)"/>
    <path id="Path_2600" data-name="Path 2600" d="M18.985,38.908H6.481q-3.811,0-3.808-3.841c0-2.442,0-4.883,0-7.325,0-.78-.234-.952-1-.787A2.136,2.136,0,0,0,.01,29.192Q0,34.186.009,39.179A2.139,2.139,0,0,0,2.443,41.57q3.774.007,7.547,0c2.59,0,5.18,0,7.769,0a2.09,2.09,0,0,0,2.1-1.34C20.24,39.272,20,38.908,18.985,38.908Z" transform="translate(144.995 460.091)"/>
  </g>
</svg>
