<svg xmlns="http://www.w3.org/2000/svg" width="11.992" height="16" viewBox="0 0 11.992 16">
  <g id="Group_6874" data-name="Group 6874" transform="translate(0.004 -0.003)">
    <path id="Path_2658" data-name="Path 2658" d="M11.929,5.2A5.992,5.992,0,0,0,0,6.093,5.344,5.344,0,0,0,.806,8.97c.528.915,1.132,1.78,1.734,2.647q1.378,1.983,2.767,3.96a.768.768,0,0,0,1.379-.007c.126-.183.247-.369.371-.553,1.3-1.924,2.7-3.78,3.942-5.747A5.877,5.877,0,0,0,11.929,5.2ZM6.007,8.5a2.5,2.5,0,1,1,2.487-2.47A2.5,2.5,0,0,1,6.007,8.5Z" transform="translate(0 0)"/>
  </g>
</svg>
