<svg xmlns="http://www.w3.org/2000/svg" width="36" height="34.327" viewBox="0 0 36 34.327">
  <g id="Group_12" data-name="Group 12" transform="translate(-6.001 -960.408)">
    <path id="Path_23" data-name="Path 23" d="M23.964,960.409a.818.818,0,0,0-.744.566l-3.854,11.943L6.82,972.893a.818.818,0,0,0-.481,1.481l10.166,7.357-3.9,11.931a.818.818,0,0,0,1.26.915L24,987.179l10.141,7.4a.818.818,0,0,0,1.26-.916l-3.9-11.931,10.166-7.357a.818.818,0,0,0-.481-1.481l-12.546.025-3.858-11.944a.818.818,0,0,0-.813-.566Z" transform="translate(0 0)" fill-rule="evenodd"/>
  </g>
</svg>
