<svg xmlns="http://www.w3.org/2000/svg" width="24" height="24" viewBox="0 0 24 24">
  <path id="Path_4905" data-name="Path 4905" d="M2919.346-4106.769a12,12,0,0,0-12,12,12,12,0,0,0,12,12,12,12,0,0,0,12-12A12,12,0,0,0,2919.346-4106.769Zm6.112,9.565-5.4,11.143a.71.71,0,0,1-.627.4.691.691,0,0,1-.627-.4l-3.6-7.417a2.914,2.914,0,0,1-2.426-1.292c-1.271-1.5-.847-4.959-.116-7.118a.471.471,0,0,1,.853-.087c.428,3.308,5.691,2.705,4.7,6.373a2.441,2.441,0,0,1-.87,1.341c-2.438-4.224-2.409-3.659-3-4.164l5.073,10.449,4.771-9.837a.72.72,0,0,1,.94-.331A.72.72,0,0,1,2925.458-4097.2Z" transform="translate(-2907.346 4106.769)"/>
</svg>
