<svg xmlns="http://www.w3.org/2000/svg" width="16.142" height="25.002" viewBox="0 0 16.142 25.002">
  <g id="Group_6962" data-name="Group 6962" transform="translate(-6670.095 3714.652)">
    <path id="Path_2684" data-name="Path 2684" d="M6673.554-3699.747c-.806,0-1.61-.007-2.415,0a.909.909,0,0,1-.961-.457c-.205-.415.009-.729.253-1.034l8.089-10.1c.727-.908,1.449-1.817,2.18-2.721.3-.371.606-.777,1.168-.5.583.283.488.767.342,1.27-.775,2.68-1.527,5.365-2.327,8.038-.178.6-.046.714.542.7,1.564-.035,3.129-.009,4.693-.012.417,0,.83.036,1.038.461s-.012.768-.275,1.1q-5.14,6.409-10.271,12.825c-.28.349-.59.662-1.072.478-.545-.208-.595-.632-.441-1.158.8-2.721,1.554-5.451,2.366-8.165.185-.616.065-.772-.562-.73C6675.12-3699.708,6674.335-3699.747,6673.554-3699.747Z" transform="translate(0)" fill="#818284"/>
  </g>
</svg>
