<svg id="Group_7659" data-name="Group 7659" xmlns="http://www.w3.org/2000/svg" width="30.009" height="30" viewBox="0 0 30.009 30">
  <path id="Path_4818" data-name="Path 4818" d="M7063.523-1990.61a27.175,27.175,0,0,1-26.248-24.469,22.615,22.615,0,0,1-.175-2.492,1.515,1.515,0,0,1,1.278-1.646c1.9-.432,3.8-.864,5.687-1.324a1.477,1.477,0,0,1,1.882.889q1.4,3.144,2.713,6.324a1.582,1.582,0,0,1-.571,1.95c-.865.7-1.712,1.42-2.595,2.095a.964.964,0,0,0-.332,1.417,21.853,21.853,0,0,0,9.03,9.129,1.172,1.172,0,0,0,1.751-.422c.627-.832,1.323-1.61,1.968-2.429a1.593,1.593,0,0,1,2.041-.532q3.028,1.271,6.039,2.584a1.671,1.671,0,0,1,1.025,2.2c-.411,1.616-.764,3.248-1.132,4.875C7065.527-1990.875,7065.162-1990.584,7063.523-1990.61Z" transform="translate(-7037.099 2020.608)" fill="#fff"/>
</svg>
