<svg xmlns="http://www.w3.org/2000/svg" width="14" height="14.034" viewBox="0 0 14 14.034">
  <path id="Path_114" data-name="Path 114" d="M5261.884-2709.442a.914.914,0,0,1,.3.76c0,1.366.006,2.732-.007,4.1,0,.267.081.33.335.327,1.337-.011,2.675-.007,4.013,0a1.055,1.055,0,0,1,1.171,1.148c.006.245.008.49,0,.735a1.05,1.05,0,0,1-1.144,1.118c-1.356,0-2.713.006-4.069,0-.234,0-.305.064-.3.3.01,1.356.006,2.713,0,4.069a1.037,1.037,0,0,1-1.085,1.142,7.815,7.815,0,0,1-.875,0,1.03,1.03,0,0,1-1.036-1.108c0-1.347-.01-2.694.005-4.041,0-.286-.071-.366-.36-.362-1.319.016-2.638.008-3.956.007a1.025,1.025,0,0,1-1.175-1.177q0-.353,0-.707a1.007,1.007,0,0,1,1.12-1.117c1.328,0,2.656,0,3.985,0,.378,0,.379,0,.379-.385q0-1.964,0-3.928a1.06,1.06,0,0,1,1.18-1.2c.236,0,.472-.007.707,0A1.016,1.016,0,0,1,5261.884-2709.442Z" transform="translate(-5253.703 2709.777)" fill="#003398"/>
</svg>
