<svg xmlns="http://www.w3.org/2000/svg" width="9.907" height="14" viewBox="0 0 9.907 14">
  <g id="Group_7194" data-name="Group 7194" transform="translate(-519.999 -1091)">
    <path id="Path_12" data-name="Path 12" d="M13.962,2.823a.28.28,0,0,0-.28-.28H13.6a.364.364,0,0,0-.378.361V6.135a.49.49,0,0,1-.89.28.56.56,0,0,1-.09-.305v-3.2a.364.364,0,0,0-.364-.364h0a.364.364,0,0,0-.364.364V6.113a.56.56,0,0,1-.09.305.49.49,0,0,1-.89-.28V2.9a.364.364,0,0,0-.364-.364H10.09a.28.28,0,0,0-.28.28V7.952a.918.918,0,0,0,.893.918h.591L10.72,15.5a1.1,1.1,0,0,0,1.173,1.019h0A1.1,1.1,0,0,0,13.066,15.5l-.58-6.63h.591a.918.918,0,0,0,.888-.918V2.823Z" transform="translate(510.189 1088.471)" fill="#FFFFFF"/>
    <path id="Path_13" data-name="Path 13" d="M36.368,10.13a1.1,1.1,0,0,0,.26-.72V3.547A1,1,0,0,0,35.679,2.5c-2.024.221-3.3,6.832-.809,7.633h0l-.451,5.2A1.17,1.17,0,0,0,35.6,16.5h0a1.17,1.17,0,0,0,1.173-1.168Z" transform="translate(493.135 1088.5)" fill="#FFFFFF"/>
  </g>
</svg>
