<svg xmlns="http://www.w3.org/2000/svg" width="13.996" height="14" viewBox="0 0 13.996 14">
  <g id="Group_7198" data-name="Group 7198" transform="translate(-685.425 -1116)">
    <path id="Path_109" data-name="Path 109" d="M-932.678,956.687l-3.063-3.063a.329.329,0,0,0-.471,0l-10.263,10.263a.329.329,0,0,0,0,.471l3.063,3.063a.348.348,0,0,0,.236.1.314.314,0,0,0,.236-.1l10.264-10.264A.329.329,0,0,0-932.678,956.687Zm-1.5,1.046-.81-.81a.329.329,0,0,0-.471,0,.329.329,0,0,0,0,.471l.81.81-.81.81-1.355-1.355a.329.329,0,0,0-.471,0,.329.329,0,0,0,0,.471l1.355,1.355-.81.81-.81-.81a.329.329,0,0,0-.471,0,.329.329,0,0,0,0,.471l.81.81-.81.81-1.355-1.355a.329.329,0,0,0-.471,0,.329.329,0,0,0,0,.471l1.355,1.355-.81.81-.81-.81a.329.329,0,0,0-.471,0,.329.329,0,0,0,0,.471l.81.81-.81.81-1.355-1.355a.329.329,0,0,0-.471,0,.329.329,0,0,0,0,.471l1.355,1.355-.81.81-.81-.81a.329.329,0,0,0-.471,0,.329.329,0,0,0,0,.471l.81.81-.81.81-2.606-2.606,9.792-9.792,2.606,2.606Z" transform="translate(1632 162.475)" fill="#003398"/>
  </g>
</svg>
