<svg xmlns="http://www.w3.org/2000/svg" width="14.226" height="16" viewBox="0 0 14.226 16">
  <g id="Group_240" data-name="Group 240" transform="translate(1323.596 2093.381)">
    <path id="Path_84" data-name="Path 84" d="M-1317.174-2085.207a3.255,3.255,0,0,1-.037.488l2.674,1.582a3.2,3.2,0,0,1,1.956-.665,3.211,3.211,0,0,1,3.211,3.211,3.211,3.211,0,0,1-3.211,3.211,3.211,3.211,0,0,1-3.211-3.211,3.211,3.211,0,0,1,.037-.488l-2.675-1.582a3.2,3.2,0,0,1-1.956.665,3.211,3.211,0,0,1-3.211-3.211,3.211,3.211,0,0,1,3.211-3.211,3.191,3.191,0,0,1,1.872.6l2.776-1.765a3.267,3.267,0,0,1-.055-.59,3.211,3.211,0,0,1,3.211-3.21,3.211,3.211,0,0,1,3.211,3.21,3.211,3.211,0,0,1-3.211,3.211,3.194,3.194,0,0,1-1.873-.6l-2.776,1.765A3.265,3.265,0,0,1-1317.174-2085.207Z" transform="translate(0)" fill="#ffffff"/>
  </g>
</svg>
