<svg xmlns="http://www.w3.org/2000/svg" width="24" height="23.958" viewBox="0 0 24 23.958">
  <path id="Path_84" data-name="Path 84" d="M-1314.556-2096.437a11.865,11.865,0,0,0-11.991,11.925,11.867,11.867,0,0,0,12.035,12.028,12.007,12.007,0,0,0,11.965-11.99C-1302.524-2090.931-1308.018-2096.632-1314.556-2096.437Zm-1.556,12.234a3.034,3.034,0,0,1-.035.457l2.5,1.48a2.991,2.991,0,0,1,1.83-.622,3,3,0,0,1,3,3,3,3,0,0,1-3,3,3,3,0,0,1-3-3,3.022,3.022,0,0,1,.035-.457l-2.5-1.48a2.992,2.992,0,0,1-1.83.622,3,3,0,0,1-3-3,3,3,0,0,1,3-3,2.988,2.988,0,0,1,1.752.564l2.6-1.652a3.035,3.035,0,0,1-.051-.552,3,3,0,0,1,3-3,3,3,0,0,1,3,3,3,3,0,0,1-3,3,2.988,2.988,0,0,1-1.752-.564l-2.6,1.651A3.014,3.014,0,0,1-1316.112-2084.2Z" transform="translate(1326.547 2096.442)" fill="#7b7c7e"/>
</svg>
