<svg xmlns="http://www.w3.org/2000/svg" width="18.279" height="22" viewBox="0 0 18.279 22">
  <g id="Group_7188" data-name="Group 7188" transform="translate(-951.001 -504)">
    <path id="Path_2723" data-name="Path 2723" d="M383.512,462.827l1.014-1.206a4.419,4.419,0,0,0,3.029,1.247c1.041,0,1.7-.48,1.7-1.207v-.027c0-.685-.384-1.055-2.165-1.466-2.042-.493-3.193-1.1-3.193-2.864v-.027c0-1.644,1.37-2.782,3.275-2.782a5.317,5.317,0,0,1,3.481,1.206l-.9,1.275a4.356,4.356,0,0,0-2.6-.987c-.986,0-1.562.507-1.562,1.138v.027c0,.74.438,1.069,2.275,1.508,2.028.494,3.083,1.22,3.083,2.809v.028c0,1.8-1.411,2.864-3.426,2.864a5.907,5.907,0,0,1-4-1.535" transform="translate(572.924 55.587)" fill="#003398"/>
    <path id="Path_2724" data-name="Path 2724" d="M355.58,432.22a7.318,7.318,0,0,1,7.3-7.322h.009l0-1.829h-.011V421.2l-1.119,1.947a9.132,9.132,0,0,0,.049,18.129l-1.246-2.148a7.318,7.318,0,0,1-4.975-6.908" transform="translate(597.25 82.8)" fill="#003398"/>
    <path id="Path_2725" data-name="Path 2725" d="M412.963,440.9a9.15,9.15,0,0,0-8.009-9.046l1.268,2.165a7.3,7.3,0,0,1-2.377,14.206v.756h-.013l.008,2.925,1.11-1.93a9.148,9.148,0,0,0,8.012-9.078" transform="translate(556.316 74.093)" fill="#003398"/>
  </g>
</svg>
