<svg xmlns="http://www.w3.org/2000/svg" width="24" height="22.885" viewBox="0 0 24 22.885">
  <g id="Path_23" data-name="Path 23" transform="translate(-6.001 -960.408)" fill="none" fill-rule="evenodd">
    <path d="M17.976,960.408a.546.546,0,0,0-.5.377l-2.569,7.962-8.364-.017a.546.546,0,0,0-.321.987l6.777,4.9-2.6,7.954a.545.545,0,0,0,.84.61L18,978.255l6.761,4.932a.546.546,0,0,0,.84-.61L23,974.623l6.777-4.9a.546.546,0,0,0-.321-.988l-8.364.017-2.572-7.962a.546.546,0,0,0-.542-.377Z" stroke="none"/>
    <path d="M 17.99989700317383 965.6878662109375 L 16.81437492370605 969.362060546875 L 16.36628532409668 970.7507934570313 L 14.90704536437988 970.7479248046875 L 11.04936408996582 970.7402954101563 L 14.17605590820313 973.0029296875 L 15.35811614990234 973.8582763671875 L 14.9044246673584 975.2450561523438 L 13.70405197143555 978.9140625 L 16.82024574279785 976.6399536132813 L 17.99900436401367 975.7797241210938 L 19.17792510986328 976.6397094726563 L 22.29762649536133 978.91552734375 L 21.09677505493164 975.2450561523438 L 20.64307403564453 973.8582763671875 L 21.82514572143555 973.0029296875 L 24.95200729370117 970.7401733398438 L 21.09395599365234 970.747802734375 L 19.63519477844238 970.7506713867188 L 19.18682479858398 969.362548828125 L 17.99989700317383 965.6878662109375 M 17.99929618835449 960.40771484375 C 18.23488998413086 960.40771484375 18.44510459899902 960.5595703125 18.51813507080078 960.785400390625 L 21.09000396728516 968.747802734375 L 29.45416450500488 968.7312622070313 C 29.45449829101563 968.7312622070313 29.45480918884277 968.7312622070313 29.45514106750488 968.7312622070313 C 29.69141387939453 968.7312622070313 29.90090751647949 968.8834838867188 29.97393417358398 969.1082763671875 C 30.04707527160645 969.3333740234375 29.96669578552246 969.5800170898438 29.77494430541992 969.7188110351563 L 22.99763488769531 974.6231689453125 L 25.59985542297363 982.5770263671875 C 25.67340469360352 982.802001953125 25.59352493286133 983.0487670898438 25.40208435058594 983.1879272460938 C 25.30646324157715 983.2573852539063 25.19390678405762 983.2921752929688 25.08135223388672 983.2921752929688 C 24.96857833862305 983.2921752929688 24.85580825805664 983.2572631835938 24.76009559631348 983.1875 L 17.99923515319824 978.2554931640625 L 11.24119567871094 983.1873779296875 C 11.14546394348145 983.2572021484375 11.03267097473145 983.2921142578125 10.91986465454102 983.2921142578125 C 10.80733299255371 983.2921142578125 10.69478797912598 983.2573852539063 10.59917449951172 983.1879272460938 C 10.40771484375 983.0487670898438 10.32780456542969 982.802001953125 10.40133476257324 982.5770874023438 L 13.00356483459473 974.6231689453125 L 6.226255416870117 969.7188110351563 C 6.034595489501953 969.5799560546875 5.95428466796875 969.3334350585938 6.02740478515625 969.1083374023438 C 6.100440979003906 968.883544921875 6.309881210327148 968.7313842773438 6.546175003051758 968.7313842773438 C 6.546449661254883 968.7313842773438 6.546760559082031 968.7313842773438 6.547035217285156 968.7313842773438 L 14.9110050201416 968.7479248046875 L 17.48009490966797 960.7857055664063 C 17.55026435852051 960.5684814453125 17.74824523925781 960.41796875 17.97629547119141 960.4083251953125 L 17.97630500793457 960.408203125 C 17.98400115966797 960.4078979492188 17.99165153503418 960.40771484375 17.99929618835449 960.40771484375 Z" stroke="none" fill="#003398"/>
  </g>
</svg>
