<svg xmlns="http://www.w3.org/2000/svg" width="21.607" height="24" viewBox="0 0 21.607 24">
  <g id="Group_7210" data-name="Group 7210" transform="translate(-748 -381)">
    <path id="Path_45" data-name="Path 45" d="M1977.1-593.891v-.87h-2.231v-1.5h5.96v1.481H1978.6v.892a10.765,10.765,0,0,1,6.283,2.594l.825-.82-.855-.768.991-1.111,2.77,2.476-.989,1.108-.763-.675-.885.87a10.717,10.717,0,0,1,2.62,8.145,10.54,10.54,0,0,1-2.941,6.445,10.733,10.733,0,0,1-12.58,2.238,10.846,10.846,0,0,1-5.988-10.759A10.881,10.881,0,0,1,1977.1-593.891Zm-8.564,10.789a9.335,9.335,0,0,0,9.464,9.35,9.349,9.349,0,0,0,9.155-9.739,9.343,9.343,0,0,0-9.676-8.928A9.331,9.331,0,0,0,1968.533-583.1Z" transform="translate(-1219.04 977.257)" fill="#003398"/>
    <path id="Path_46" data-name="Path 46" d="M2110.008-519.3h1.469V-519q0,2.807,0,5.613a.368.368,0,0,0,.159.323q2.99,2.358,5.975,4.722c.045.036.089.074.154.129l-.92,1.161c-.59-.465-1.166-.918-1.74-1.372q-2.49-1.97-4.981-3.938a.3.3,0,0,1-.124-.266q0-3.264,0-6.528C2110-519.2,2110-519.238,2110.008-519.3Z" transform="translate(-1351.931 905.716)" fill="#003398"/>
    <path id="Path_47" data-name="Path 47" d="M1977.1-593.891v-.87h-2.231v-1.5h5.96v1.481H1978.6v.892a10.765,10.765,0,0,1,6.283,2.594l.825-.82-.855-.768.991-1.111,2.77,2.476-.989,1.108-.763-.675-.885.87a10.717,10.717,0,0,1,2.62,8.145,10.54,10.54,0,0,1-2.941,6.445,10.733,10.733,0,0,1-12.58,2.238,10.846,10.846,0,0,1-5.988-10.759A10.881,10.881,0,0,1,1977.1-593.891Zm-8.564,10.789a9.335,9.335,0,0,0,9.464,9.35,9.349,9.349,0,0,0,9.155-9.739,9.343,9.343,0,0,0-9.676-8.928A9.331,9.331,0,0,0,1968.533-583.1Z" transform="translate(-1219.04 977.257)" fill="#003398"/>
    <path id="Path_48" data-name="Path 48" d="M2110.008-519.3h1.469V-519q0,2.807,0,5.613a.368.368,0,0,0,.159.323q2.99,2.358,5.975,4.722c.045.036.089.074.154.129l-.92,1.161c-.59-.465-1.166-.918-1.74-1.372q-2.49-1.97-4.981-3.938a.3.3,0,0,1-.124-.266q0-3.264,0-6.528C2110-519.2,2110-519.238,2110.008-519.3Z" transform="translate(-1351.931 905.716)" fill="#003398"/>
  </g>
</svg>
