<svg xmlns="http://www.w3.org/2000/svg" width="14.001" height="16" viewBox="0 0 14.001 16">
  <g id="_6poZRB" data-name="6poZRB" transform="translate(-4888.207 2230.793)">
    <g id="Group_7199" data-name="Group 7199" transform="translate(4888.207 -2230.793)">
      <path id="Path_2755" data-name="Path 2755" d="M4903.507-2194.718h5.385c.5,0,.6.092.574.58-.093,1.588-.2,3.175-.3,4.762-.1,1.67-.216,3.341-.309,5.012a1.582,1.582,0,0,1-.986,1.532,1.826,1.826,0,0,1-.709.106q-3.65,0-7.3,0a1.553,1.553,0,0,1-1.717-1.644q-.24-3.946-.492-7.891c-.041-.646-.083-1.292-.117-1.938-.021-.393.1-.517.5-.517Q4900.773-2194.72,4903.507-2194.718Z" transform="translate(-4896.501 2198.724)" fill="#7b7c7e"/>
      <path id="Path_2756" data-name="Path 2756" d="M4895.208-2227.786h-6.327c-.589,0-.673-.085-.674-.677,0-.194-.005-.389.012-.582a.723.723,0,0,1,.8-.737c1.008-.006,2.017-.015,3.025.005a.528.528,0,0,0,.6-.383.918.918,0,0,1,1.014-.632c1.054.026,2.109.021,3.164,0a.857.857,0,0,1,.927.59.6.6,0,0,0,.688.425c.961-.028,1.923-.011,2.885-.009.609,0,.876.27.882.881,0,.231,0,.463,0,.694a.385.385,0,0,1-.392.415c-.11.009-.222.008-.333.008Z" transform="translate(-4888.207 2230.793)" fill="#7b7c7e"/>
    </g>
  </g>
</svg>
