<svg xmlns="http://www.w3.org/2000/svg" width="15.678" height="14" viewBox="0 0 15.678 14">
  <g id="Group_7191" data-name="Group 7191" transform="translate(-704 -739)">
    <path id="Path_2664" data-name="Path 2664" d="M7911.686-3652.857c-.882,0-1.765-.006-2.648,0-.2,0-.271-.046-.269-.259.011-1.049,0-2.1.008-3.148a2,2,0,0,1,.988-1.733.332.332,0,0,1,.422,0,2.557,2.557,0,0,0,3.022,0,.3.3,0,0,1,.37-.021,1.92,1.92,0,0,1,1.012,1.623c.031,1.107.007,2.216.018,3.324,0,.2-.083.22-.247.219C7913.471-3652.861,7912.578-3652.857,7911.686-3652.857Z" transform="translate(-7194.932 4405.851)" fill="#fff"/>
    <path id="Path_2665" data-name="Path 2665" d="M7744.645-3652.835c-.873,0-1.746-.006-2.618,0-.216,0-.308-.035-.3-.284.016-1.069,0-2.138.014-3.206a1.938,1.938,0,0,1,.993-1.663.314.314,0,0,1,.4.005,2.556,2.556,0,0,0,3.022,0,.32.32,0,0,1,.4-.011,2,2,0,0,1,1.008,1.724c.022,1.068,0,2.138.012,3.206,0,.192-.075.225-.243.224C7746.43-3652.838,7745.537-3652.835,7744.645-3652.835Z" transform="translate(-7037.723 4405.828)" fill="#fff"/>
    <path id="Path_2666" data-name="Path 2666" d="M7832.149-3672.343c-.026-.507.034-1.124-.034-1.741a2.718,2.718,0,0,0-1.217-2.048c-.227-.153-.2-.234,0-.351.076-.044.146-.1.219-.148a.393.393,0,0,1,.542.028,2.767,2.767,0,0,0,3.264.052.552.552,0,0,1,.766.008c.318.229.32.222.016.449a2.8,2.8,0,0,0-1.182,2.344c-.006,1.01-.008,2.02,0,3.029,0,.235-.045.326-.3.317-.6-.02-1.2-.019-1.793,0-.242.007-.3-.077-.289-.3C7832.159-3671.214,7832.149-3671.724,7832.149-3672.343Z" transform="translate(-7121.496 4423.404)" fill="#fff"/>
    <path id="Path_2667" data-name="Path 2667" d="M7841.951-3744.984a2.05,2.05,0,0,1-2.074-2.031,2.073,2.073,0,0,1,2.061-2.086,2.077,2.077,0,0,1,2.059,2.058A2.048,2.048,0,0,1,7841.951-3744.984Z" transform="translate(-7130.098 4491.516)" fill="#fff"/>
    <path id="Path_2668" data-name="Path 2668" d="M7761.833-3724.379a1.826,1.826,0,0,1,1.824,1.835,1.853,1.853,0,0,1-1.85,1.82,1.862,1.862,0,0,1-1.828-1.845A1.839,1.839,0,0,1,7761.833-3724.379Z" transform="translate(-7054.904 4468.25)" fill="#fff"/>
    <path id="Path_2669" data-name="Path 2669" d="M7929.105-3724.378a1.841,1.841,0,0,1,1.855,1.808,1.863,1.863,0,0,1-1.828,1.846,1.851,1.851,0,0,1-1.85-1.819A1.824,1.824,0,0,1,7929.105-3724.378Z" transform="translate(-7212.355 4468.25)" fill="#fff"/>
    <path id="Path_2670" data-name="Path 2670" d="M7900-3772.353a2.928,2.928,0,0,0-1.369-2.023c-.125-.075-.07-.156-.024-.247a1.855,1.855,0,0,1,2.692-.56,1.913,1.913,0,0,1,.737,1.56c0,.171-.043.271-.258.3A2.685,2.685,0,0,0,7900-3772.353Z" transform="translate(-7185.316 4516.399)" fill="#fff"/>
    <path id="Path_2671" data-name="Path 2671" d="M7846.8-3807.087a1.838,1.838,0,0,1,1.595,1.116c.075.162.079.264-.1.374a2.223,2.223,0,0,0-.875.967.261.261,0,0,1-.34.176.68.68,0,0,0-.318-.034.835.835,0,0,1-1.063-.512,1.526,1.526,0,0,0-.6-.55c-.157-.088-.164-.18-.107-.333A1.909,1.909,0,0,1,7846.8-3807.087Z" transform="translate(-7134.875 4546.088)" fill="#fff"/>
    <path id="Path_2672" data-name="Path 2672" d="M7794.011-3771.281a2.744,2.744,0,0,0-1.833-.991c-.151-.017-.2-.079-.2-.221a1.763,1.763,0,0,1,.944-1.671,1.733,1.733,0,0,1,1.961.108,1.936,1.936,0,0,1,.5.534c.065.1.069.161-.045.234A2.9,2.9,0,0,0,7794.011-3771.281Z" transform="translate(-7085.016 4515.342)" fill="#fff"/>
  </g>
</svg>
