<svg xmlns="http://www.w3.org/2000/svg" width="36" height="20" viewBox="0 0 36 20">
  <g id="Group_7171" data-name="Group 7171" transform="translate(-490 -436)">
    <g id="Group_7158" data-name="Group 7158" transform="translate(-185 -38)">
      <g id="Group_7157" data-name="Group 7157" transform="translate(675 474)">
        <path id="Path_2730" data-name="Path 2730" d="M33.331,2.366H25.639A1.69,1.69,0,0,0,24.05,4.142V20.59a1.691,1.691,0,0,0,1.589,1.776h7.692A1.69,1.69,0,0,0,34.92,20.59V4.142A1.69,1.69,0,0,0,33.331,2.366ZM28.475,3.8h2.02a.121.121,0,1,1,0,.242h-2.02a.121.121,0,1,1,0-.242Zm1.01,18.216a.891.891,0,1,1,.891-.891A.892.892,0,0,1,29.485,22.016Zm4.856-2.389H24.629V5.105H34.34V19.627Z" transform="translate(-24.05 -2.366)"/>
      </g>
    </g>
    <g id="Group_7170" data-name="Group 7170" transform="translate(506 439)">
      <path id="Path_10" data-name="Path 10" d="M3.885.745A2.371,2.371,0,0,1,5.318.108a30.765,30.765,0,0,1,9.363,0,2.286,2.286,0,0,1,1.4.637c.35,1.146.669,2.293.987,3.471a.889.889,0,0,1,.573-.191h1.369A.972.972,0,0,1,20,5.013a.986.986,0,0,1-.987.955h-.637a4.292,4.292,0,0,1,.35,1.847c.032,1.656.032,3.312.032,4.968a.537.537,0,0,1-.541.541H15.732a.537.537,0,0,1-.541-.541v-.669H4.809v.669a.545.545,0,0,1-.573.541H1.783a.545.545,0,0,1-.573-.541c0-1.656.032-3.312.032-4.968a4.292,4.292,0,0,1,.35-1.847H.955A.98.98,0,0,1,0,5.013a.965.965,0,0,1,.955-.987h1.4a.865.865,0,0,1,.541.191C3.217,3.038,3.535,1.892,3.885.745ZM7.739,9.439h4.522a.51.51,0,0,1,0,1.019H7.739a.51.51,0,0,1,0-1.019ZM4.809,1.191c-.255.955-.51,1.943-.8,2.93a57.572,57.572,0,0,1,11.943,0c-.255-.987-.541-1.975-.8-2.93A29.734,29.734,0,0,0,4.809,1.191ZM15.764,6.573A1.1,1.1,0,0,0,14.65,7.656a1.128,1.128,0,0,0,1.115,1.115,1.1,1.1,0,0,0,1.083-1.115A1.074,1.074,0,0,0,15.764,6.573Zm-11.529,0A1.074,1.074,0,0,1,5.318,7.656a1.083,1.083,0,1,1-2.166,0A1.074,1.074,0,0,1,4.236,6.573Z" transform="translate(0 0.25)" fill-rule="evenodd"/>
    </g>
  </g>
</svg>
