<svg xmlns="http://www.w3.org/2000/svg" width="36" height="18" viewBox="0 0 36 18">
  <g id="Group_7173" data-name="Group 7173" transform="translate(-639 -387)">
    <g id="Group_7172" data-name="Group 7172" transform="translate(639 387)">
      <path id="Path_2745" data-name="Path 2745" d="M35.865,33.516,27.85,26.933a4.787,4.787,0,0,0-2.6-.933H3.939a1.873,1.873,0,0,0-1.758,1.441l-.893,4.465A17.9,17.9,0,0,0,1,34.816V39.96l3.306.734a4.408,4.408,0,1,1,8.816,0h12.49a4.408,4.408,0,1,1,8.816,0L37,39.959V35.918A3.536,3.536,0,0,0,35.865,33.516ZM21.2,32.175l-6.98-.3V28.2H21.2Zm2.2.094V28.2h1.837a2.752,2.752,0,0,1,1.206.432l4.83,3.968Z" transform="translate(-1 -26)"/>
      <circle id="Ellipse_86" data-name="Ellipse 86" cx="3" cy="3" r="3" transform="translate(5 12)"/>
      <circle id="Ellipse_87" data-name="Ellipse 87" cx="3" cy="3" r="3" transform="translate(26 12)"/>
    </g>
  </g>
</svg>
