<svg xmlns="http://www.w3.org/2000/svg" width="21.023" height="24" viewBox="0 0 21.023 24">
  <g id="Group_7162" data-name="Group 7162" transform="translate(-802 -480)">
    <g id="Group_7161" data-name="Group 7161" transform="translate(802 480)">
      <path id="Path_2735" data-name="Path 2735" d="M34.8,32.86a2.378,2.378,0,0,0,2.095-2.372V20.9a2.413,2.413,0,0,0-2.4-2.4H26.368a2.413,2.413,0,0,0-2.4,2.4v9.59a2.4,2.4,0,0,0,2.095,2.372l-2.145,4.315a.877.877,0,0,0,.4,1.186,1.058,1.058,0,0,0,.4.1.866.866,0,0,0,.782-.479l.707-1.413h8.4l.707,1.413a.9.9,0,0,0,.808.479.8.8,0,0,0,.4-.1.914.914,0,0,0,.4-1.186Zm-8.479-4.517a1.11,1.11,0,0,1,2.221,0,1.11,1.11,0,1,1-2.221,0Zm.782,6.41.934-1.868H32.8l.934,1.868Zm6.334-5.3a1.11,1.11,0,1,1,1.11-1.11A1.12,1.12,0,0,1,33.435,29.453Zm-7.42-4.341V20.9a.345.345,0,0,1,.353-.353h8.126a.345.345,0,0,1,.353.353v4.215Z" transform="translate(-19.883 -14.462)"/>
      <path id="Path_2736" data-name="Path 2736" d="M24.2,2.5H13.3A5.1,5.1,0,0,0,8.2,7.6V22.033a.883.883,0,1,0,1.767,0V7.6a3.3,3.3,0,0,1,3.306-3.306H24.15A3.3,3.3,0,0,1,27.456,7.6V22.033a.883.883,0,1,0,1.767,0V7.6A5,5,0,0,0,24.2,2.5Z" transform="translate(-8.2 -2.5)"/>
    </g>
  </g>
</svg>
