<svg xmlns="http://www.w3.org/2000/svg" width="16.822" height="24" viewBox="0 0 16.822 24">
  <g id="Group_7164" data-name="Group 7164" transform="translate(-424 -285)">
    <g id="Group_7163" data-name="Group 7163" transform="translate(424 285)">
      <circle id="Ellipse_84" data-name="Ellipse 84" cx="1.2" cy="1.2" r="1.2" transform="translate(4.806 0)"/>
      <circle id="Ellipse_85" data-name="Ellipse 85" cx="1.2" cy="1.2" r="1.2" transform="translate(9.607 0)"/>
      <path id="Path_2738" data-name="Path 2738" d="M93.713,52.8H79.3A1.2,1.2,0,0,0,78.1,54V68.413a1.2,1.2,0,0,0,1.2,1.2h1.134l-1.073,3.223a1.169,1.169,0,0,0,.761,1.522,1.247,1.247,0,0,0,1.522-.761l.128-.378h9.479l.128.378a1.278,1.278,0,0,0,1.522.761,1.2,1.2,0,0,0,.761-1.522l-1.073-3.223h1.134a1.2,1.2,0,0,0,1.2-1.2V54A1.213,1.213,0,0,0,93.713,52.8ZM80.5,65.412a1.8,1.8,0,1,1,1.8,1.8A1.8,1.8,0,0,1,80.5,65.412Zm2.065,5.406.4-1.2h7.079l.4,1.2Zm8.147-3.6a1.8,1.8,0,1,1,1.8-1.8A1.8,1.8,0,0,1,90.712,67.217Zm1.8-6.488a.484.484,0,0,1-.482.482H80.982a.484.484,0,0,1-.482-.482V55.682a.484.484,0,0,1,.482-.482H92.035a.484.484,0,0,1,.482.482v5.047Z" transform="translate(-78.1 -50.4)"/>
    </g>
  </g>
</svg>
