<svg xmlns="http://www.w3.org/2000/svg" width="36" height="17.845" viewBox="0 0 36 17.845">
  <g id="Group_7175" data-name="Group 7175" transform="translate(0 -25.22)">
    <path id="Path_2748" data-name="Path 2748" d="M32.663,25.22H3.337A3.337,3.337,0,0,0,0,28.557V40.081a.417.417,0,0,0,.418.418H3.5a4.036,4.036,0,1,1,8.071,0H23.515a4.039,4.039,0,0,1,8.075,0h3.992a.418.418,0,0,0,.418-.41V28.568a3.337,3.337,0,0,0-3.326-3.348ZM11.081,33.86H3.006V27.931h8.075Zm11.2,0H14.209V27.931h8.075Zm10.71,0H24.919V27.931h8.075Z" transform="translate(0 0)"/>
    <path id="Path_2749" data-name="Path 2749" d="M16.37,60.59a2.556,2.556,0,1,0,2.542,2.57v-.018A2.56,2.56,0,0,0,16.37,60.59Z" transform="translate(-8.832 -22.637)"/>
    <path id="Path_2750" data-name="Path 2750" d="M71.99,60.59a2.556,2.556,0,1,0,2.552,2.56v-.007A2.56,2.56,0,0,0,71.99,60.59Z" transform="translate(-44.435 -22.637)"/>
  </g>
</svg>
