<svg xmlns="http://www.w3.org/2000/svg" width="36" height="12.378" viewBox="0 0 36 12.378">
  <g id="Group_7169" data-name="Group 7169" transform="translate(-595 -461)">
    <g id="Group_7168" data-name="Group 7168" transform="translate(595 461)">
      <path id="Path_2742" data-name="Path 2742" d="M75.625,53.639a2.405,2.405,0,1,0,2.406,2.4A2.408,2.408,0,0,0,75.625,53.639Z" transform="translate(-46.421 -46.071)"/>
      <path id="Path_2743" data-name="Path 2743" d="M17.2,53.639a2.405,2.405,0,1,0,2.406,2.4A2.408,2.408,0,0,0,17.2,53.639Z" transform="translate(-10.135 -46.071)"/>
      <path id="Path_2744" data-name="Path 2744" d="M38.271,41.236a2.377,2.377,0,0,0-.939-1.335,17.749,17.749,0,0,0-6.25-1.836c-.416-.039-1.083-.131-1.083-.131a25.83,25.83,0,0,0-6.787-3.723c-3.3-1.021-10.1-.3-10.69-.24-1.389.124-5.168,2.922-5.168,2.922A33.966,33.966,0,0,0,2.913,37.92C2.6,38.2,2.49,39.581,2.5,40.862s.239,3.043.239,3.043l3.43.206a3.406,3.406,0,0,1,3.395-3.9A3.475,3.475,0,0,1,13,43.692a4.069,4.069,0,0,1-.153,1.067H28.428a4.061,4.061,0,0,1-.154-1.067,3.431,3.431,0,1,1,6.862-.038,3.349,3.349,0,0,1-.114.859,23.251,23.251,0,0,0,3.385-.01A10.538,10.538,0,0,0,38.271,41.236Zm-25.831-3.5s-.039-2.091.524-2.607,4.234-.383,4.41-.4a.389.389,0,0,1,.357.365c.013.184.206,2.954.206,2.954Zm13.3.57-6.4-.159s-.615-3.076-.641-3.2.089-.213.285-.214a20.312,20.312,0,0,1,4.14.713,14.5,14.5,0,0,1,3.407,1.858Z" transform="translate(-2.5 -33.669)"/>
    </g>
  </g>
</svg>
