<svg xmlns="http://www.w3.org/2000/svg" width="30" height="18.328" viewBox="0 0 30 18.328">
  <g id="Group_7166" data-name="Group 7166" transform="translate(-2.4 -21)">
    <path id="Path_2740" data-name="Path 2740" d="M26.627,27.782a5.789,5.789,0,0,0-1.483.189l-2.524-6.593A.623.623,0,0,0,22.053,21H20.066a.6.6,0,0,0-.6.6.58.58,0,0,0,.6.6h1.577l1.1,2.871H14.04l-.252-.662c.6-.095,1.136-.189,1.23-.221a.543.543,0,0,0,.5-.5V23.4a.216.216,0,0,0-.221-.221h-3.88a.364.364,0,0,0-.379.379s-.063,1.325.5,1.23c.189-.032.568-.095,1.041-.189l.379.978-2.019,2.9a5.84,5.84,0,0,0-2.776-.694,5.773,5.773,0,1,0,5.741,6.372h2.808a.477.477,0,0,0,.442-.221l6.183-7.224.662,1.7a5.768,5.768,0,1,0,2.618-.631ZM8.2,38.129a4.574,4.574,0,1,1,2.082-8.644L7.7,33.208a.64.64,0,0,0-.032.631.611.611,0,0,0,.536.315h4.543A4.617,4.617,0,0,1,8.2,38.129ZM9.34,32.956l1.924-2.808a4.711,4.711,0,0,1,1.483,2.808Zm4.606,0a5.736,5.736,0,0,0-1.987-3.785l1.546-2.24,2.366,6.025Zm3-.568-2.429-6.151h7.666Zm9.685,5.741a4.564,4.564,0,0,1-2.177-8.58l1.609,4.227a.578.578,0,0,0,.568.379.537.537,0,0,0,.221-.032.582.582,0,0,0,.347-.757l-1.609-4.227a4,4,0,0,1,1.073-.126,4.558,4.558,0,1,1-.032,9.117Z"/>
  </g>
</svg>
