<svg xmlns="http://www.w3.org/2000/svg" width="30" height="20.204" viewBox="0 0 30 20.204">
  <g id="Group_7165" data-name="Group 7165" transform="translate(-907 -320)">
    <path id="Path_2739" data-name="Path 2739" d="M26.714,28.633a4.271,4.271,0,0,0-1.509.279l-.681-1.048a5.489,5.489,0,0,1,2.191-.455L21.6,18.679A2.759,2.759,0,0,0,19.061,17H17.837a.918.918,0,0,0,0,1.837h1.224a.919.919,0,0,1,.918.918V27.1a3.673,3.673,0,0,1-3.673,3.673H14.469V27.408A3.95,3.95,0,0,0,10.8,23.735H5.286a3.95,3.95,0,0,0-3.673,3.673H5.286A5.507,5.507,0,0,1,10.713,32H9.47a4.286,4.286,0,1,0,0,1.837H21.2v-.918a5.49,5.49,0,0,1,1.783-4.05l.677,1.041a4.285,4.285,0,1,0,3.051-1.277ZM5.286,35.367A2.449,2.449,0,1,1,7.554,32H5.286a.918.918,0,1,0,0,1.837H7.554A2.452,2.452,0,0,1,5.286,35.367Zm21.429,0a2.446,2.446,0,0,1-2.006-3.85l1.236,1.9a.918.918,0,0,0,1.54-1l-1.237-1.9a2.448,2.448,0,1,1,.467,4.852Z" transform="translate(906 303)"/>
  </g>
</svg>
